<svg width="1440" height="820" viewBox="0 0 1440 820" fill="none" xmlns="http://www.w3.org/2000/svg">
<g clip-path="url(#clip0_140116_492)">
<rect width="1440" height="820" fill="#F0F0F7"/>
<rect x="800" width="640" height="820" fill="#41414C"/>
<rect x="256" y="517" width="352" height="56" rx="8" fill="#F25D27"/>
<path d="M395.842 551V540.024H401.346C402.157 540.024 402.823 540.168 403.346 540.456C403.879 540.744 404.279 541.149 404.546 541.672C404.813 542.195 404.946 542.819 404.946 543.544C404.946 544.259 404.807 544.883 404.53 545.416C404.253 545.949 403.837 546.365 403.282 546.664C402.738 546.952 402.055 547.096 401.234 547.096H397.922V551H395.842ZM397.922 545.32H401.17C401.703 545.32 402.114 545.165 402.402 544.856C402.701 544.536 402.85 544.099 402.85 543.544C402.85 543.171 402.786 542.856 402.658 542.6C402.53 542.344 402.343 542.147 402.098 542.008C401.853 541.869 401.543 541.8 401.17 541.8H397.922V545.32ZM409.844 551.192C408.948 551.192 408.202 551.037 407.604 550.728C407.007 550.408 406.559 549.923 406.26 549.272C405.962 548.621 405.812 547.795 405.812 546.792C405.812 545.779 405.962 544.952 406.26 544.312C406.559 543.661 407.007 543.181 407.604 542.872C408.202 542.552 408.948 542.392 409.844 542.392C410.655 542.392 411.332 542.547 411.876 542.856C412.431 543.155 412.847 543.619 413.124 544.248C413.402 544.877 413.54 545.693 413.54 546.696V547.272H407.812C407.834 547.795 407.914 548.237 408.052 548.6C408.191 548.952 408.404 549.219 408.692 549.4C408.991 549.571 409.38 549.656 409.86 549.656C410.106 549.656 410.335 549.624 410.548 549.56C410.762 549.496 410.948 549.4 411.108 549.272C411.268 549.133 411.391 548.963 411.476 548.76C411.572 548.557 411.62 548.323 411.62 548.056H413.54C413.54 548.589 413.444 549.053 413.252 549.448C413.071 549.843 412.81 550.168 412.468 550.424C412.138 550.68 411.748 550.872 411.3 551C410.852 551.128 410.367 551.192 409.844 551.192ZM407.844 545.896H411.508C411.508 545.544 411.466 545.245 411.38 545C411.306 544.755 411.194 544.552 411.044 544.392C410.906 544.232 410.735 544.12 410.532 544.056C410.33 543.981 410.1 543.944 409.844 543.944C409.428 543.944 409.076 544.013 408.788 544.152C408.511 544.291 408.298 544.504 408.148 544.792C407.999 545.08 407.898 545.448 407.844 545.896ZM418.477 551.192C417.869 551.192 417.336 551.128 416.877 551C416.419 550.861 416.035 550.675 415.725 550.44C415.416 550.205 415.181 549.933 415.021 549.624C414.872 549.304 414.797 548.957 414.797 548.584C414.797 548.531 414.797 548.483 414.797 548.44C414.808 548.397 414.813 548.365 414.813 548.344H416.733C416.733 548.365 416.733 548.387 416.733 548.408C416.733 548.429 416.733 548.451 416.733 548.472C416.744 548.76 416.835 548.995 417.005 549.176C417.176 549.347 417.4 549.469 417.677 549.544C417.955 549.619 418.248 549.656 418.557 549.656C418.835 549.656 419.096 549.629 419.341 549.576C419.597 549.512 419.805 549.416 419.965 549.288C420.136 549.149 420.221 548.973 420.221 548.76C420.221 548.483 420.115 548.269 419.901 548.12C419.688 547.971 419.405 547.848 419.053 547.752C418.712 547.656 418.344 547.555 417.949 547.448C417.597 547.352 417.245 547.245 416.893 547.128C416.541 547.011 416.221 546.861 415.933 546.68C415.656 546.499 415.427 546.264 415.245 545.976C415.075 545.688 414.989 545.331 414.989 544.904C414.989 544.488 415.08 544.125 415.261 543.816C415.443 543.507 415.693 543.251 416.013 543.048C416.333 542.835 416.712 542.675 417.149 542.568C417.587 542.461 418.061 542.408 418.573 542.408C419.075 542.408 419.528 542.461 419.933 542.568C420.349 542.675 420.707 542.829 421.005 543.032C421.315 543.224 421.549 543.464 421.709 543.752C421.88 544.029 421.965 544.339 421.965 544.68C421.965 544.755 421.96 544.829 421.949 544.904C421.949 544.979 421.949 545.021 421.949 545.032H420.045V544.92C420.045 544.717 419.981 544.547 419.853 544.408C419.736 544.259 419.56 544.141 419.325 544.056C419.101 543.971 418.819 543.928 418.477 543.928C418.221 543.928 417.997 543.949 417.805 543.992C417.613 544.035 417.453 544.093 417.325 544.168C417.208 544.243 417.117 544.328 417.053 544.424C416.989 544.52 416.957 544.627 416.957 544.744C416.957 544.947 417.037 545.107 417.197 545.224C417.357 545.341 417.571 545.443 417.837 545.528C418.115 545.613 418.413 545.704 418.733 545.8C419.117 545.907 419.512 546.019 419.917 546.136C420.323 546.243 420.696 546.381 421.037 546.552C421.389 546.723 421.672 546.963 421.885 547.272C422.099 547.581 422.205 547.992 422.205 548.504C422.205 548.995 422.109 549.416 421.917 549.768C421.736 550.109 421.475 550.387 421.133 550.6C420.803 550.803 420.408 550.952 419.949 551.048C419.501 551.144 419.011 551.192 418.477 551.192ZM429.293 553.768V550.024H429.197C429.027 550.28 428.819 550.499 428.573 550.68C428.328 550.851 428.045 550.979 427.725 551.064C427.405 551.149 427.053 551.192 426.669 551.192C426.051 551.192 425.496 551.037 425.005 550.728C424.515 550.419 424.131 549.939 423.853 549.288C423.576 548.637 423.437 547.811 423.437 546.808C423.437 545.784 423.571 544.947 423.837 544.296C424.115 543.645 424.504 543.165 425.005 542.856C425.507 542.547 426.099 542.392 426.781 542.392C427.325 542.392 427.821 542.504 428.269 542.728C428.728 542.941 429.091 543.267 429.357 543.704H429.469L429.629 542.584H431.245V553.768H429.293ZM427.389 549.512C427.731 549.512 428.019 549.453 428.253 549.336C428.499 549.219 428.696 549.048 428.845 548.824C428.995 548.6 429.107 548.328 429.181 548.008C429.256 547.677 429.293 547.304 429.293 546.888V546.696C429.293 546.131 429.224 545.656 429.085 545.272C428.957 544.877 428.755 544.579 428.477 544.376C428.2 544.173 427.837 544.072 427.389 544.072C426.909 544.072 426.525 544.168 426.237 544.36C425.96 544.541 425.757 544.829 425.629 545.224C425.512 545.608 425.453 546.099 425.453 546.696V546.92C425.453 547.507 425.512 547.992 425.629 548.376C425.757 548.76 425.96 549.048 426.237 549.24C426.525 549.421 426.909 549.512 427.389 549.512ZM435.994 551.192C435.184 551.192 434.522 550.973 434.01 550.536C433.509 550.088 433.258 549.331 433.258 548.264V542.584H435.21V547.912C435.21 548.211 435.242 548.461 435.306 548.664C435.381 548.856 435.482 549.016 435.61 549.144C435.749 549.261 435.914 549.347 436.106 549.4C436.298 549.453 436.512 549.48 436.746 549.48C437.098 549.48 437.413 549.395 437.69 549.224C437.978 549.053 438.202 548.819 438.362 548.52C438.533 548.211 438.618 547.864 438.618 547.48V542.584H440.57V551H438.954L438.794 549.88H438.682C438.49 550.136 438.261 550.365 437.994 550.568C437.738 550.76 437.44 550.909 437.098 551.016C436.768 551.133 436.4 551.192 435.994 551.192ZM442.65 541.288V539.432H444.602V541.288H442.65ZM442.65 551V542.584H444.602V551H442.65ZM449.962 551.192C449.354 551.192 448.82 551.128 448.362 551C447.903 550.861 447.519 550.675 447.21 550.44C446.9 550.205 446.666 549.933 446.506 549.624C446.356 549.304 446.282 548.957 446.282 548.584C446.282 548.531 446.282 548.483 446.282 548.44C446.292 548.397 446.298 548.365 446.298 548.344H448.218C448.218 548.365 448.218 548.387 448.218 548.408C448.218 548.429 448.218 548.451 448.218 548.472C448.228 548.76 448.319 548.995 448.49 549.176C448.66 549.347 448.884 549.469 449.162 549.544C449.439 549.619 449.732 549.656 450.042 549.656C450.319 549.656 450.58 549.629 450.826 549.576C451.082 549.512 451.29 549.416 451.45 549.288C451.62 549.149 451.706 548.973 451.706 548.76C451.706 548.483 451.599 548.269 451.386 548.12C451.172 547.971 450.89 547.848 450.538 547.752C450.196 547.656 449.828 547.555 449.434 547.448C449.082 547.352 448.73 547.245 448.378 547.128C448.026 547.011 447.706 546.861 447.418 546.68C447.14 546.499 446.911 546.264 446.73 545.976C446.559 545.688 446.474 545.331 446.474 544.904C446.474 544.488 446.564 544.125 446.746 543.816C446.927 543.507 447.178 543.251 447.498 543.048C447.818 542.835 448.196 542.675 448.634 542.568C449.071 542.461 449.546 542.408 450.058 542.408C450.559 542.408 451.012 542.461 451.418 542.568C451.834 542.675 452.191 542.829 452.49 543.032C452.799 543.224 453.034 543.464 453.194 543.752C453.364 544.029 453.45 544.339 453.45 544.68C453.45 544.755 453.444 544.829 453.434 544.904C453.434 544.979 453.434 545.021 453.434 545.032H451.53V544.92C451.53 544.717 451.466 544.547 451.338 544.408C451.22 544.259 451.044 544.141 450.81 544.056C450.586 543.971 450.303 543.928 449.962 543.928C449.706 543.928 449.482 543.949 449.29 543.992C449.098 544.035 448.938 544.093 448.81 544.168C448.692 544.243 448.602 544.328 448.538 544.424C448.474 544.52 448.442 544.627 448.442 544.744C448.442 544.947 448.522 545.107 448.682 545.224C448.842 545.341 449.055 545.443 449.322 545.528C449.599 545.613 449.898 545.704 450.218 545.8C450.602 545.907 450.996 546.019 451.402 546.136C451.807 546.243 452.18 546.381 452.522 546.552C452.874 546.723 453.156 546.963 453.37 547.272C453.583 547.581 453.69 547.992 453.69 548.504C453.69 548.995 453.594 549.416 453.402 549.768C453.22 550.109 452.959 550.387 452.618 550.6C452.287 550.803 451.892 550.952 451.434 551.048C450.986 551.144 450.495 551.192 449.962 551.192ZM457.498 551.192C457.263 551.192 456.991 551.16 456.682 551.096C456.383 551.043 456.09 550.936 455.802 550.776C455.525 550.616 455.295 550.381 455.114 550.072C454.933 549.752 454.842 549.336 454.842 548.824C454.842 548.248 454.97 547.773 455.226 547.4C455.482 547.016 455.839 546.717 456.298 546.504C456.767 546.28 457.322 546.125 457.962 546.04C458.613 545.944 459.322 545.896 460.09 545.896V545.208C460.09 544.963 460.053 544.744 459.978 544.552C459.903 544.36 459.765 544.211 459.562 544.104C459.37 543.987 459.077 543.928 458.682 543.928C458.287 543.928 457.978 543.976 457.754 544.072C457.53 544.168 457.375 544.285 457.29 544.424C457.205 544.563 457.162 544.707 457.162 544.856V545.08H455.274C455.263 545.027 455.258 544.973 455.258 544.92C455.258 544.867 455.258 544.803 455.258 544.728C455.258 544.248 455.402 543.832 455.69 543.48C455.978 543.128 456.378 542.861 456.89 542.68C457.402 542.488 457.994 542.392 458.666 542.392C459.434 542.392 460.063 542.499 460.554 542.712C461.055 542.925 461.429 543.229 461.674 543.624C461.919 544.019 462.042 544.499 462.042 545.064V549.032C462.042 549.235 462.101 549.379 462.218 549.464C462.335 549.549 462.463 549.592 462.602 549.592H463.114V550.936C463.007 550.979 462.853 551.027 462.65 551.08C462.447 551.144 462.197 551.176 461.898 551.176C461.621 551.176 461.37 551.128 461.146 551.032C460.933 550.947 460.751 550.819 460.602 550.648C460.453 550.477 460.346 550.275 460.282 550.04H460.186C460.005 550.264 459.786 550.467 459.53 550.648C459.285 550.819 458.991 550.952 458.65 551.048C458.319 551.144 457.935 551.192 457.498 551.192ZM458.09 549.592C458.41 549.592 458.693 549.544 458.938 549.448C459.194 549.352 459.402 549.219 459.562 549.048C459.733 548.877 459.861 548.669 459.946 548.424C460.042 548.179 460.09 547.912 460.09 547.624V547.24C459.503 547.24 458.959 547.277 458.458 547.352C457.967 547.427 457.573 547.565 457.274 547.768C456.986 547.971 456.842 548.259 456.842 548.632C456.842 548.824 456.885 548.995 456.97 549.144C457.066 549.283 457.205 549.395 457.386 549.48C457.578 549.555 457.813 549.592 458.09 549.592ZM464.228 551V542.584H465.86L466.02 543.912H466.132C466.239 543.645 466.367 543.4 466.516 543.176C466.676 542.941 466.879 542.755 467.124 542.616C467.37 542.467 467.668 542.392 468.02 542.392C468.191 542.392 468.346 542.408 468.484 542.44C468.634 542.472 468.746 542.504 468.82 542.536V544.376H468.228C467.898 544.376 467.604 544.424 467.348 544.52C467.092 544.605 466.874 544.744 466.692 544.936C466.522 545.128 466.394 545.368 466.308 545.656C466.223 545.944 466.18 546.28 466.18 546.664V551H464.228Z" fill="white"/>
<path d="M275.98 247.432C275.404 246.376 274.612 245.572 273.604 245.02C272.596 244.468 271.42 244.192 270.076 244.192C268.588 244.192 267.268 244.528 266.116 245.2C264.964 245.872 264.064 246.832 263.416 248.08C262.768 249.328 262.444 250.768 262.444 252.4C262.444 254.08 262.768 255.544 263.416 256.792C264.088 258.04 265.012 259 266.188 259.672C267.364 260.344 268.732 260.68 270.292 260.68C272.212 260.68 273.784 260.176 275.008 259.168C276.232 258.136 277.036 256.708 277.42 254.884H268.78V251.032H282.388V255.424C282.052 257.176 281.332 258.796 280.228 260.284C279.124 261.772 277.696 262.972 275.944 263.884C274.216 264.772 272.272 265.216 270.112 265.216C267.688 265.216 265.492 264.676 263.524 263.596C261.58 262.492 260.044 260.968 258.916 259.024C257.812 257.08 257.26 254.872 257.26 252.4C257.26 249.928 257.812 247.72 258.916 245.776C260.044 243.808 261.58 242.284 263.524 241.204C265.492 240.1 267.676 239.548 270.076 239.548C272.908 239.548 275.368 240.244 277.456 241.636C279.544 243.004 280.984 244.936 281.776 247.432H275.98ZM288.673 242.68C287.785 242.68 287.041 242.404 286.441 241.852C285.865 241.276 285.577 240.568 285.577 239.728C285.577 238.888 285.865 238.192 286.441 237.64C287.041 237.064 287.785 236.776 288.673 236.776C289.561 236.776 290.293 237.064 290.869 237.64C291.469 238.192 291.769 238.888 291.769 239.728C291.769 240.568 291.469 241.276 290.869 241.852C290.293 242.404 289.561 242.68 288.673 242.68ZM291.157 245.056V265H286.117V245.056H291.157ZM302.004 249.196V258.844C302.004 259.516 302.16 260.008 302.472 260.32C302.808 260.608 303.36 260.752 304.128 260.752H306.468V265H303.3C299.052 265 296.928 262.936 296.928 258.808V249.196H294.552V245.056H296.928V240.124H302.004V245.056H306.468V249.196H302.004ZM321.325 244.768C322.837 244.768 324.181 245.104 325.357 245.776C326.533 246.424 327.445 247.396 328.093 248.692C328.765 249.964 329.101 251.5 329.101 253.3V265H324.061V253.984C324.061 252.4 323.665 251.188 322.873 250.348C322.081 249.484 321.001 249.052 319.633 249.052C318.241 249.052 317.137 249.484 316.321 250.348C315.529 251.188 315.133 252.4 315.133 253.984V265H310.093V238.36H315.133V247.54C315.781 246.676 316.645 246.004 317.725 245.524C318.805 245.02 320.005 244.768 321.325 244.768ZM352.722 245.056V265H347.646V262.48C346.998 263.344 346.146 264.028 345.09 264.532C344.058 265.012 342.93 265.252 341.706 265.252C340.146 265.252 338.766 264.928 337.566 264.28C336.366 263.608 335.418 262.636 334.722 261.364C334.05 260.068 333.714 258.532 333.714 256.756V245.056H338.754V256.036C338.754 257.62 339.15 258.844 339.942 259.708C340.734 260.548 341.814 260.968 343.182 260.968C344.574 260.968 345.666 260.548 346.458 259.708C347.25 258.844 347.646 257.62 347.646 256.036V245.056H352.722ZM362.735 247.972C363.383 247.012 364.271 246.232 365.399 245.632C366.551 245.032 367.859 244.732 369.323 244.732C371.027 244.732 372.563 245.152 373.931 245.992C375.323 246.832 376.415 248.032 377.207 249.592C378.023 251.128 378.431 252.916 378.431 254.956C378.431 256.996 378.023 258.808 377.207 260.392C376.415 261.952 375.323 263.164 373.931 264.028C372.563 264.892 371.027 265.324 369.323 265.324C367.835 265.324 366.527 265.036 365.399 264.46C364.295 263.86 363.407 263.092 362.735 262.156V265H357.695V238.36H362.735V247.972ZM373.283 254.956C373.283 253.756 373.031 252.724 372.527 251.86C372.047 250.972 371.399 250.3 370.583 249.844C369.791 249.388 368.927 249.16 367.991 249.16C367.079 249.16 366.215 249.4 365.399 249.88C364.607 250.336 363.959 251.008 363.455 251.896C362.975 252.784 362.735 253.828 362.735 255.028C362.735 256.228 362.975 257.272 363.455 258.16C363.959 259.048 364.607 259.732 365.399 260.212C366.215 260.668 367.079 260.896 367.991 260.896C368.927 260.896 369.791 260.656 370.583 260.176C371.399 259.696 372.047 259.012 372.527 258.124C373.031 257.236 373.283 256.18 373.283 254.956ZM395.64 239.872V255.424C395.64 257.128 396.084 258.436 396.972 259.348C397.86 260.236 399.108 260.68 400.716 260.68C402.348 260.68 403.608 260.236 404.496 259.348C405.384 258.436 405.828 257.128 405.828 255.424V239.872H410.904V255.388C410.904 257.524 410.436 259.336 409.5 260.824C408.588 262.288 407.352 263.392 405.792 264.136C404.256 264.88 402.54 265.252 400.644 265.252C398.772 265.252 397.068 264.88 395.532 264.136C394.02 263.392 392.82 262.288 391.932 260.824C391.044 259.336 390.6 257.524 390.6 255.388V239.872H395.64ZM423.405 265.324C421.773 265.324 420.309 265.036 419.013 264.46C417.717 263.86 416.685 263.056 415.917 262.048C415.173 261.04 414.765 259.924 414.693 258.7H419.769C419.865 259.468 420.237 260.104 420.885 260.608C421.557 261.112 422.385 261.364 423.369 261.364C424.329 261.364 425.073 261.172 425.601 260.788C426.153 260.404 426.429 259.912 426.429 259.312C426.429 258.664 426.093 258.184 425.421 257.872C424.773 257.536 423.729 257.176 422.289 256.792C420.801 256.432 419.577 256.06 418.617 255.676C417.681 255.292 416.865 254.704 416.169 253.912C415.497 253.12 415.161 252.052 415.161 250.708C415.161 249.604 415.473 248.596 416.097 247.684C416.745 246.772 417.657 246.052 418.833 245.524C420.033 244.996 421.437 244.732 423.045 244.732C425.421 244.732 427.317 245.332 428.733 246.532C430.149 247.708 430.929 249.304 431.073 251.32H426.249C426.177 250.528 425.841 249.904 425.241 249.448C424.665 248.968 423.885 248.728 422.901 248.728C421.989 248.728 421.281 248.896 420.777 249.232C420.297 249.568 420.057 250.036 420.057 250.636C420.057 251.308 420.393 251.824 421.065 252.184C421.737 252.52 422.781 252.868 424.197 253.228C425.637 253.588 426.825 253.96 427.761 254.344C428.697 254.728 429.501 255.328 430.173 256.144C430.869 256.936 431.229 257.992 431.253 259.312C431.253 260.464 430.929 261.496 430.281 262.408C429.657 263.32 428.745 264.04 427.545 264.568C426.369 265.072 424.989 265.324 423.405 265.324ZM453.93 254.596C453.93 255.316 453.882 255.964 453.786 256.54H439.206C439.326 257.98 439.83 259.108 440.718 259.924C441.606 260.74 442.698 261.148 443.994 261.148C445.866 261.148 447.198 260.344 447.99 258.736H453.426C452.85 260.656 451.746 262.24 450.114 263.488C448.482 264.712 446.478 265.324 444.102 265.324C442.182 265.324 440.454 264.904 438.918 264.064C437.406 263.2 436.218 261.988 435.354 260.428C434.514 258.868 434.094 257.068 434.094 255.028C434.094 252.964 434.514 251.152 435.354 249.592C436.194 248.032 437.37 246.832 438.882 245.992C440.394 245.152 442.134 244.732 444.102 244.732C445.998 244.732 447.69 245.14 449.178 245.956C450.69 246.772 451.854 247.936 452.67 249.448C453.51 250.936 453.93 252.652 453.93 254.596ZM448.71 253.156C448.686 251.86 448.218 250.828 447.306 250.06C446.394 249.268 445.278 248.872 443.958 248.872C442.71 248.872 441.654 249.256 440.79 250.024C439.95 250.768 439.434 251.812 439.242 253.156H448.71ZM462.649 248.152C463.297 247.096 464.137 246.268 465.169 245.668C466.225 245.068 467.425 244.768 468.769 244.768V250.06H467.437C465.853 250.06 464.653 250.432 463.837 251.176C463.045 251.92 462.649 253.216 462.649 255.064V265H457.609V245.056H462.649V248.152ZM274 285.872V289.94H263.524V296.384H271.552V300.38H263.524V311H258.484V285.872H274ZM280.13 288.68C279.242 288.68 278.498 288.404 277.898 287.852C277.322 287.276 277.034 286.568 277.034 285.728C277.034 284.888 277.322 284.192 277.898 283.64C278.498 283.064 279.242 282.776 280.13 282.776C281.018 282.776 281.75 283.064 282.326 283.64C282.926 284.192 283.226 284.888 283.226 285.728C283.226 286.568 282.926 287.276 282.326 287.852C281.75 288.404 281.018 288.68 280.13 288.68ZM282.614 291.056V311H277.574V291.056H282.614ZM298.645 290.768C301.021 290.768 302.941 291.524 304.405 293.036C305.869 294.524 306.601 296.612 306.601 299.3V311H301.561V299.984C301.561 298.4 301.165 297.188 300.373 296.348C299.581 295.484 298.501 295.052 297.133 295.052C295.741 295.052 294.637 295.484 293.821 296.348C293.029 297.188 292.633 298.4 292.633 299.984V311H287.593V291.056H292.633V293.54C293.305 292.676 294.157 292.004 295.189 291.524C296.245 291.02 297.397 290.768 298.645 290.768ZM310.098 300.956C310.098 298.94 310.494 297.152 311.286 295.592C312.102 294.032 313.206 292.832 314.598 291.992C315.99 291.152 317.538 290.732 319.242 290.732C320.538 290.732 321.774 291.02 322.95 291.596C324.126 292.148 325.062 292.892 325.758 293.828V284.36H330.87V311H325.758V308.048C325.134 309.032 324.258 309.824 323.13 310.424C322.002 311.024 320.694 311.324 319.206 311.324C317.526 311.324 315.99 310.892 314.598 310.028C313.206 309.164 312.102 307.952 311.286 306.392C310.494 304.808 310.098 302.996 310.098 300.956ZM325.794 301.028C325.794 299.804 325.554 298.76 325.074 297.896C324.594 297.008 323.946 296.336 323.13 295.88C322.314 295.4 321.438 295.16 320.502 295.16C319.566 295.16 318.702 295.388 317.91 295.844C317.118 296.3 316.47 296.972 315.966 297.86C315.486 298.724 315.246 299.756 315.246 300.956C315.246 302.156 315.486 303.212 315.966 304.124C316.47 305.012 317.118 305.696 317.91 306.176C318.726 306.656 319.59 306.896 320.502 306.896C321.438 306.896 322.314 306.668 323.13 306.212C323.946 305.732 324.594 305.06 325.074 304.196C325.554 303.308 325.794 302.252 325.794 301.028ZM354.333 300.596C354.333 301.316 354.285 301.964 354.189 302.54H339.609C339.729 303.98 340.233 305.108 341.121 305.924C342.009 306.74 343.101 307.148 344.397 307.148C346.269 307.148 347.601 306.344 348.393 304.736H353.829C353.253 306.656 352.149 308.24 350.517 309.488C348.885 310.712 346.881 311.324 344.505 311.324C342.585 311.324 340.857 310.904 339.321 310.064C337.809 309.2 336.621 307.988 335.757 306.428C334.917 304.868 334.497 303.068 334.497 301.028C334.497 298.964 334.917 297.152 335.757 295.592C336.597 294.032 337.773 292.832 339.285 291.992C340.797 291.152 342.537 290.732 344.505 290.732C346.401 290.732 348.093 291.14 349.581 291.956C351.093 292.772 352.257 293.936 353.073 295.448C353.913 296.936 354.333 298.652 354.333 300.596ZM349.113 299.156C349.089 297.86 348.621 296.828 347.709 296.06C346.797 295.268 345.681 294.872 344.361 294.872C343.113 294.872 342.057 295.256 341.193 296.024C340.353 296.768 339.837 297.812 339.645 299.156H349.113ZM363.051 294.152C363.699 293.096 364.539 292.268 365.571 291.668C366.627 291.068 367.827 290.768 369.171 290.768V296.06H367.839C366.255 296.06 365.055 296.432 364.239 297.176C363.447 297.92 363.051 299.216 363.051 301.064V311H358.011V291.056H363.051V294.152Z" fill="#32264D"/>
<path d="M256.5 423C256.5 418.858 259.858 415.5 264 415.5H600C604.142 415.5 607.5 418.858 607.5 423V479C607.5 483.142 604.142 486.5 600 486.5H264C259.858 486.5 256.5 483.142 256.5 479V423Z" fill="#FAFAFC" stroke="#E6E6F0"/>
<path d="M285.292 446.454C286.66 446.454 287.842 446.712 288.838 447.228C289.846 447.732 290.614 448.458 291.142 449.406C291.682 450.354 291.952 451.47 291.952 452.754C291.952 454.038 291.682 455.154 291.142 456.102C290.614 457.038 289.846 457.758 288.838 458.262C287.842 458.754 286.66 459 285.292 459H281.386V446.454H285.292ZM285.292 457.65C286.912 457.65 288.148 457.224 289 456.372C289.852 455.508 290.278 454.302 290.278 452.754C290.278 451.194 289.846 449.976 288.982 449.1C288.13 448.224 286.9 447.786 285.292 447.786H283.024V457.65H285.292ZM294.959 447.534C294.647 447.534 294.383 447.426 294.167 447.21C293.951 446.994 293.843 446.73 293.843 446.418C293.843 446.106 293.951 445.842 294.167 445.626C294.383 445.41 294.647 445.302 294.959 445.302C295.259 445.302 295.511 445.41 295.715 445.626C295.931 445.842 296.039 446.106 296.039 446.418C296.039 446.73 295.931 446.994 295.715 447.21C295.511 447.426 295.259 447.534 294.959 447.534ZM295.751 449.136V459H294.113V449.136H295.751ZM302.61 448.974C303.462 448.974 304.206 449.16 304.842 449.532C305.49 449.904 305.97 450.372 306.282 450.936V449.136H307.938V459.216C307.938 460.116 307.746 460.914 307.362 461.61C306.978 462.318 306.426 462.87 305.706 463.266C304.998 463.662 304.17 463.86 303.222 463.86C301.926 463.86 300.846 463.554 299.982 462.942C299.118 462.33 298.608 461.496 298.452 460.44H300.072C300.252 461.04 300.624 461.52 301.188 461.88C301.752 462.252 302.43 462.438 303.222 462.438C304.122 462.438 304.854 462.156 305.418 461.592C305.994 461.028 306.282 460.236 306.282 459.216V457.146C305.958 457.722 305.478 458.202 304.842 458.586C304.206 458.97 303.462 459.162 302.61 459.162C301.734 459.162 300.936 458.946 300.216 458.514C299.508 458.082 298.95 457.476 298.542 456.696C298.134 455.916 297.93 455.028 297.93 454.032C297.93 453.024 298.134 452.142 298.542 451.386C298.95 450.618 299.508 450.024 300.216 449.604C300.936 449.184 301.734 448.974 302.61 448.974ZM306.282 454.05C306.282 453.306 306.132 452.658 305.832 452.106C305.532 451.554 305.124 451.134 304.608 450.846C304.104 450.546 303.546 450.396 302.934 450.396C302.322 450.396 301.764 450.54 301.26 450.828C300.756 451.116 300.354 451.536 300.054 452.088C299.754 452.64 299.604 453.288 299.604 454.032C299.604 454.788 299.754 455.448 300.054 456.012C300.354 456.564 300.756 456.99 301.26 457.29C301.764 457.578 302.322 457.722 302.934 457.722C303.546 457.722 304.104 457.578 304.608 457.29C305.124 456.99 305.532 456.564 305.832 456.012C306.132 455.448 306.282 454.794 306.282 454.05ZM311.552 447.534C311.24 447.534 310.976 447.426 310.76 447.21C310.544 446.994 310.436 446.73 310.436 446.418C310.436 446.106 310.544 445.842 310.76 445.626C310.976 445.41 311.24 445.302 311.552 445.302C311.852 445.302 312.104 445.41 312.308 445.626C312.524 445.842 312.632 446.106 312.632 446.418C312.632 446.73 312.524 446.994 312.308 447.21C312.104 447.426 311.852 447.534 311.552 447.534ZM312.344 449.136V459H310.706V449.136H312.344ZM317.134 450.486V456.3C317.134 456.78 317.236 457.122 317.44 457.326C317.644 457.518 317.998 457.614 318.502 457.614H319.708V459H318.232C317.32 459 316.636 458.79 316.18 458.37C315.724 457.95 315.496 457.26 315.496 456.3V450.486H314.218V449.136H315.496V446.652H317.134V449.136H319.708V450.486H317.134ZM330.693 453.69C330.693 454.002 330.675 454.332 330.639 454.68H322.755C322.815 455.652 323.145 456.414 323.745 456.966C324.357 457.506 325.095 457.776 325.959 457.776C326.667 457.776 327.255 457.614 327.723 457.29C328.203 456.954 328.539 456.51 328.731 455.958H330.495C330.231 456.906 329.703 457.68 328.911 458.28C328.119 458.868 327.135 459.162 325.959 459.162C325.023 459.162 324.183 458.952 323.439 458.532C322.707 458.112 322.131 457.518 321.711 456.75C321.291 455.97 321.081 455.07 321.081 454.05C321.081 453.03 321.285 452.136 321.693 451.368C322.101 450.6 322.671 450.012 323.403 449.604C324.147 449.184 324.999 448.974 325.959 448.974C326.895 448.974 327.723 449.178 328.443 449.586C329.163 449.994 329.715 450.558 330.099 451.278C330.495 451.986 330.693 452.79 330.693 453.69ZM329.001 453.348C329.001 452.724 328.863 452.19 328.587 451.746C328.311 451.29 327.933 450.948 327.453 450.72C326.985 450.48 326.463 450.36 325.887 450.36C325.059 450.36 324.351 450.624 323.763 451.152C323.187 451.68 322.857 452.412 322.773 453.348H329.001ZM341.956 459.162C341.032 459.162 340.192 458.952 339.436 458.532C338.692 458.112 338.104 457.518 337.672 456.75C337.252 455.97 337.042 455.07 337.042 454.05C337.042 453.042 337.258 452.154 337.69 451.386C338.134 450.606 338.734 450.012 339.49 449.604C340.246 449.184 341.092 448.974 342.028 448.974C342.964 448.974 343.81 449.184 344.566 449.604C345.322 450.012 345.916 450.6 346.348 451.368C346.792 452.136 347.014 453.03 347.014 454.05C347.014 455.07 346.786 455.97 346.33 456.75C345.886 457.518 345.28 458.112 344.512 458.532C343.744 458.952 342.892 459.162 341.956 459.162ZM341.956 457.722C342.544 457.722 343.096 457.584 343.612 457.308C344.128 457.032 344.542 456.618 344.854 456.066C345.178 455.514 345.34 454.842 345.34 454.05C345.34 453.258 345.184 452.586 344.872 452.034C344.56 451.482 344.152 451.074 343.648 450.81C343.144 450.534 342.598 450.396 342.01 450.396C341.41 450.396 340.858 450.534 340.354 450.81C339.862 451.074 339.466 451.482 339.166 452.034C338.866 452.586 338.716 453.258 338.716 454.05C338.716 454.854 338.86 455.532 339.148 456.084C339.448 456.636 339.844 457.05 340.336 457.326C340.828 457.59 341.368 457.722 341.956 457.722ZM358.772 448.956C359.972 448.956 360.944 449.322 361.688 450.054C362.432 450.774 362.804 451.818 362.804 453.186V459H361.184V453.42C361.184 452.436 360.938 451.686 360.446 451.17C359.954 450.642 359.282 450.378 358.43 450.378C357.566 450.378 356.876 450.648 356.36 451.188C355.856 451.728 355.604 452.514 355.604 453.546V459H353.966V449.136H355.604V450.54C355.928 450.036 356.366 449.646 356.918 449.37C357.482 449.094 358.1 448.956 358.772 448.956ZM369.782 459.162C368.858 459.162 368.018 458.952 367.262 458.532C366.518 458.112 365.93 457.518 365.498 456.75C365.078 455.97 364.868 455.07 364.868 454.05C364.868 453.042 365.084 452.154 365.516 451.386C365.96 450.606 366.56 450.012 367.316 449.604C368.072 449.184 368.918 448.974 369.854 448.974C370.79 448.974 371.636 449.184 372.392 449.604C373.148 450.012 373.742 450.6 374.174 451.368C374.618 452.136 374.84 453.03 374.84 454.05C374.84 455.07 374.612 455.97 374.156 456.75C373.712 457.518 373.106 458.112 372.338 458.532C371.57 458.952 370.718 459.162 369.782 459.162ZM369.782 457.722C370.37 457.722 370.922 457.584 371.438 457.308C371.954 457.032 372.368 456.618 372.68 456.066C373.004 455.514 373.166 454.842 373.166 454.05C373.166 453.258 373.01 452.586 372.698 452.034C372.386 451.482 371.978 451.074 371.474 450.81C370.97 450.534 370.424 450.396 369.836 450.396C369.236 450.396 368.684 450.534 368.18 450.81C367.688 451.074 367.292 451.482 366.992 452.034C366.692 452.586 366.542 453.258 366.542 454.05C366.542 454.854 366.686 455.532 366.974 456.084C367.274 456.636 367.67 457.05 368.162 457.326C368.654 457.59 369.194 457.722 369.782 457.722ZM388.855 448.956C389.623 448.956 390.307 449.118 390.907 449.442C391.507 449.754 391.981 450.228 392.329 450.864C392.677 451.5 392.851 452.274 392.851 453.186V459H391.231V453.42C391.231 452.436 390.985 451.686 390.493 451.17C390.013 450.642 389.359 450.378 388.531 450.378C387.679 450.378 387.001 450.654 386.497 451.206C385.993 451.746 385.741 452.532 385.741 453.564V459H384.121V453.42C384.121 452.436 383.875 451.686 383.383 451.17C382.903 450.642 382.249 450.378 381.421 450.378C380.569 450.378 379.891 450.654 379.387 451.206C378.883 451.746 378.631 452.532 378.631 453.564V459H376.993V449.136H378.631V450.558C378.955 450.042 379.387 449.646 379.927 449.37C380.479 449.094 381.085 448.956 381.745 448.956C382.573 448.956 383.305 449.142 383.941 449.514C384.577 449.886 385.051 450.432 385.363 451.152C385.639 450.456 386.095 449.916 386.731 449.532C387.367 449.148 388.075 448.956 388.855 448.956ZM404.538 453.69C404.538 454.002 404.52 454.332 404.484 454.68H396.6C396.66 455.652 396.99 456.414 397.59 456.966C398.202 457.506 398.94 457.776 399.804 457.776C400.512 457.776 401.1 457.614 401.568 457.29C402.048 456.954 402.384 456.51 402.576 455.958H404.34C404.076 456.906 403.548 457.68 402.756 458.28C401.964 458.868 400.98 459.162 399.804 459.162C398.868 459.162 398.028 458.952 397.284 458.532C396.552 458.112 395.976 457.518 395.556 456.75C395.136 455.97 394.926 455.07 394.926 454.05C394.926 453.03 395.13 452.136 395.538 451.368C395.946 450.6 396.516 450.012 397.248 449.604C397.992 449.184 398.844 448.974 399.804 448.974C400.74 448.974 401.568 449.178 402.288 449.586C403.008 449.994 403.56 450.558 403.944 451.278C404.34 451.986 404.538 452.79 404.538 453.69ZM402.846 453.348C402.846 452.724 402.708 452.19 402.432 451.746C402.156 451.29 401.778 450.948 401.298 450.72C400.83 450.48 400.308 450.36 399.732 450.36C398.904 450.36 398.196 450.624 397.608 451.152C397.032 451.68 396.702 452.412 396.618 453.348H402.846ZM410.887 454.032C410.887 453.024 411.091 452.142 411.499 451.386C411.907 450.618 412.465 450.024 413.173 449.604C413.893 449.184 414.697 448.974 415.585 448.974C416.353 448.974 417.067 449.154 417.727 449.514C418.387 449.862 418.891 450.324 419.239 450.9V445.68H420.895V459H419.239V457.146C418.915 457.734 418.435 458.22 417.799 458.604C417.163 458.976 416.419 459.162 415.567 459.162C414.691 459.162 413.893 458.946 413.173 458.514C412.465 458.082 411.907 457.476 411.499 456.696C411.091 455.916 410.887 455.028 410.887 454.032ZM419.239 454.05C419.239 453.306 419.089 452.658 418.789 452.106C418.489 451.554 418.081 451.134 417.565 450.846C417.061 450.546 416.503 450.396 415.891 450.396C415.279 450.396 414.721 450.54 414.217 450.828C413.713 451.116 413.311 451.536 413.011 452.088C412.711 452.64 412.561 453.288 412.561 454.032C412.561 454.788 412.711 455.448 413.011 456.012C413.311 456.564 413.713 456.99 414.217 457.29C414.721 457.578 415.279 457.722 415.891 457.722C416.503 457.722 417.061 457.578 417.565 457.29C418.081 456.99 418.489 456.564 418.789 456.012C419.089 455.448 419.239 454.794 419.239 454.05ZM427.965 459.162C427.041 459.162 426.201 458.952 425.445 458.532C424.701 458.112 424.113 457.518 423.681 456.75C423.261 455.97 423.051 455.07 423.051 454.05C423.051 453.042 423.267 452.154 423.699 451.386C424.143 450.606 424.743 450.012 425.499 449.604C426.255 449.184 427.101 448.974 428.037 448.974C428.973 448.974 429.819 449.184 430.575 449.604C431.331 450.012 431.925 450.6 432.357 451.368C432.801 452.136 433.023 453.03 433.023 454.05C433.023 455.07 432.795 455.97 432.339 456.75C431.895 457.518 431.289 458.112 430.521 458.532C429.753 458.952 428.901 459.162 427.965 459.162ZM427.965 457.722C428.553 457.722 429.105 457.584 429.621 457.308C430.137 457.032 430.551 456.618 430.863 456.066C431.187 455.514 431.349 454.842 431.349 454.05C431.349 453.258 431.193 452.586 430.881 452.034C430.569 451.482 430.161 451.074 429.657 450.81C429.153 450.534 428.607 450.396 428.019 450.396C427.419 450.396 426.867 450.534 426.363 450.81C425.871 451.074 425.475 451.482 425.175 452.034C424.875 452.586 424.725 453.258 424.725 454.05C424.725 454.854 424.869 455.532 425.157 456.084C425.457 456.636 425.853 457.05 426.345 457.326C426.837 457.59 427.377 457.722 427.965 457.722ZM448.724 449.136V459H447.086V457.542C446.774 458.046 446.336 458.442 445.772 458.73C445.22 459.006 444.608 459.144 443.936 459.144C443.168 459.144 442.478 458.988 441.866 458.676C441.254 458.352 440.768 457.872 440.408 457.236C440.06 456.6 439.886 455.826 439.886 454.914V449.136H441.506V454.698C441.506 455.67 441.752 456.42 442.244 456.948C442.736 457.464 443.408 457.722 444.26 457.722C445.136 457.722 445.826 457.452 446.33 456.912C446.834 456.372 447.086 455.586 447.086 454.554V449.136H448.724ZM454.982 459.162C454.226 459.162 453.548 459.036 452.948 458.784C452.348 458.52 451.874 458.16 451.526 457.704C451.178 457.236 450.986 456.702 450.95 456.102H452.642C452.69 456.594 452.918 456.996 453.326 457.308C453.746 457.62 454.292 457.776 454.964 457.776C455.588 457.776 456.08 457.638 456.44 457.362C456.8 457.086 456.98 456.738 456.98 456.318C456.98 455.886 456.788 455.568 456.404 455.364C456.02 455.148 455.426 454.938 454.622 454.734C453.89 454.542 453.29 454.35 452.822 454.158C452.366 453.954 451.97 453.66 451.634 453.276C451.31 452.88 451.148 452.364 451.148 451.728C451.148 451.224 451.298 450.762 451.598 450.342C451.898 449.922 452.324 449.592 452.876 449.352C453.428 449.1 454.058 448.974 454.766 448.974C455.858 448.974 456.74 449.25 457.412 449.802C458.084 450.354 458.444 451.11 458.492 452.07H456.854C456.818 451.554 456.608 451.14 456.224 450.828C455.852 450.516 455.348 450.36 454.712 450.36C454.124 450.36 453.656 450.486 453.308 450.738C452.96 450.99 452.786 451.32 452.786 451.728C452.786 452.052 452.888 452.322 453.092 452.538C453.308 452.742 453.572 452.91 453.884 453.042C454.208 453.162 454.652 453.3 455.216 453.456C455.924 453.648 456.5 453.84 456.944 454.032C457.388 454.212 457.766 454.488 458.078 454.86C458.402 455.232 458.57 455.718 458.582 456.318C458.582 456.858 458.432 457.344 458.132 457.776C457.832 458.208 457.406 458.55 456.854 458.802C456.314 459.042 455.69 459.162 454.982 459.162ZM469.642 449.136V459H468.004V457.542C467.692 458.046 467.254 458.442 466.69 458.73C466.138 459.006 465.526 459.144 464.854 459.144C464.086 459.144 463.396 458.988 462.784 458.676C462.172 458.352 461.686 457.872 461.326 457.236C460.978 456.6 460.804 455.826 460.804 454.914V449.136H462.424V454.698C462.424 455.67 462.67 456.42 463.162 456.948C463.654 457.464 464.326 457.722 465.178 457.722C466.054 457.722 466.744 457.452 467.248 456.912C467.752 456.372 468.004 455.586 468.004 454.554V449.136H469.642ZM471.795 454.032C471.795 453.024 471.999 452.142 472.407 451.386C472.815 450.618 473.373 450.024 474.081 449.604C474.801 449.184 475.599 448.974 476.475 448.974C477.339 448.974 478.089 449.16 478.725 449.532C479.361 449.904 479.835 450.372 480.147 450.936V449.136H481.803V459H480.147V457.164C479.823 457.74 479.337 458.22 478.689 458.604C478.053 458.976 477.309 459.162 476.457 459.162C475.581 459.162 474.789 458.946 474.081 458.514C473.373 458.082 472.815 457.476 472.407 456.696C471.999 455.916 471.795 455.028 471.795 454.032ZM480.147 454.05C480.147 453.306 479.997 452.658 479.697 452.106C479.397 451.554 478.989 451.134 478.473 450.846C477.969 450.546 477.411 450.396 476.799 450.396C476.187 450.396 475.629 450.54 475.125 450.828C474.621 451.116 474.219 451.536 473.919 452.088C473.619 452.64 473.469 453.288 473.469 454.032C473.469 454.788 473.619 455.448 473.919 456.012C474.219 456.564 474.621 456.99 475.125 457.29C475.629 457.578 476.187 457.722 476.799 457.722C477.411 457.722 477.969 457.578 478.473 457.29C478.989 456.99 479.397 456.564 479.697 456.012C479.997 455.448 480.147 454.794 480.147 454.05ZM478.869 446.346L475.035 448.398V447.174L478.869 444.924V446.346ZM486.21 450.738C486.498 450.174 486.906 449.736 487.434 449.424C487.974 449.112 488.628 448.956 489.396 448.956V450.648H488.964C487.128 450.648 486.21 451.644 486.21 453.636V459H484.572V449.136H486.21V450.738ZM492.132 447.534C491.82 447.534 491.556 447.426 491.34 447.21C491.124 446.994 491.016 446.73 491.016 446.418C491.016 446.106 491.124 445.842 491.34 445.626C491.556 445.41 491.82 445.302 492.132 445.302C492.432 445.302 492.684 445.41 492.888 445.626C493.104 445.842 493.212 446.106 493.212 446.418C493.212 446.73 493.104 446.994 492.888 447.21C492.684 447.426 492.432 447.534 492.132 447.534ZM492.924 449.136V459H491.286V449.136H492.924ZM500.018 459.162C499.094 459.162 498.254 458.952 497.498 458.532C496.754 458.112 496.166 457.518 495.734 456.75C495.314 455.97 495.104 455.07 495.104 454.05C495.104 453.042 495.32 452.154 495.752 451.386C496.196 450.606 496.796 450.012 497.552 449.604C498.308 449.184 499.154 448.974 500.09 448.974C501.026 448.974 501.872 449.184 502.628 449.604C503.384 450.012 503.978 450.6 504.41 451.368C504.854 452.136 505.076 453.03 505.076 454.05C505.076 455.07 504.848 455.97 504.392 456.75C503.948 457.518 503.342 458.112 502.574 458.532C501.806 458.952 500.954 459.162 500.018 459.162ZM500.018 457.722C500.606 457.722 501.158 457.584 501.674 457.308C502.19 457.032 502.604 456.618 502.916 456.066C503.24 455.514 503.402 454.842 503.402 454.05C503.402 453.258 503.246 452.586 502.934 452.034C502.622 451.482 502.214 451.074 501.71 450.81C501.206 450.534 500.66 450.396 500.072 450.396C499.472 450.396 498.92 450.534 498.416 450.81C497.924 451.074 497.528 451.482 497.228 452.034C496.928 452.586 496.778 453.258 496.778 454.05C496.778 454.854 496.922 455.532 497.21 456.084C497.51 456.636 497.906 457.05 498.398 457.326C498.89 457.59 499.43 457.722 500.018 457.722Z" fill="#C1BCCC"/>
<path d="M264.448 348.848L260.24 360H258.56L254.352 348.848H255.904L259.408 358.464L262.912 348.848H264.448ZM274.045 355.28C274.045 355.557 274.029 355.851 273.997 356.16H266.989C267.042 357.024 267.335 357.701 267.869 358.192C268.413 358.672 269.069 358.912 269.837 358.912C270.466 358.912 270.989 358.768 271.405 358.48C271.831 358.181 272.13 357.787 272.301 357.296H273.869C273.634 358.139 273.165 358.827 272.461 359.36C271.757 359.883 270.882 360.144 269.837 360.144C269.005 360.144 268.258 359.957 267.597 359.584C266.946 359.211 266.434 358.683 266.061 358C265.687 357.307 265.501 356.507 265.501 355.6C265.501 354.693 265.682 353.899 266.045 353.216C266.407 352.533 266.914 352.011 267.565 351.648C268.226 351.275 268.983 351.088 269.837 351.088C270.669 351.088 271.405 351.269 272.045 351.632C272.685 351.995 273.175 352.496 273.517 353.136C273.869 353.765 274.045 354.48 274.045 355.28ZM272.541 354.976C272.541 354.421 272.418 353.947 272.173 353.552C271.927 353.147 271.591 352.843 271.165 352.64C270.749 352.427 270.285 352.32 269.773 352.32C269.037 352.32 268.407 352.555 267.885 353.024C267.373 353.493 267.079 354.144 267.005 354.976H272.541ZM276.75 349.808C276.473 349.808 276.238 349.712 276.046 349.52C275.865 349.328 275.774 349.093 275.774 348.816C275.774 348.539 275.865 348.304 276.046 348.112C276.238 347.92 276.473 347.824 276.75 347.824C277.028 347.824 277.257 347.92 277.438 348.112C277.63 348.304 277.726 348.539 277.726 348.816C277.726 349.093 277.63 349.328 277.438 349.52C277.257 349.712 277.028 349.808 276.75 349.808ZM277.47 361.904C277.47 362.683 277.273 363.253 276.878 363.616C276.484 363.979 275.908 364.16 275.15 364.16H274.302V362.928H274.91C275.316 362.928 275.598 362.848 275.758 362.688C275.929 362.528 276.014 362.256 276.014 361.872V351.232H277.47V361.904ZM279.391 355.584C279.391 354.688 279.572 353.904 279.935 353.232C280.298 352.549 280.794 352.021 281.423 351.648C282.063 351.275 282.772 351.088 283.551 351.088C284.319 351.088 284.986 351.253 285.551 351.584C286.116 351.915 286.538 352.331 286.815 352.832V351.232H288.287V360H286.815V358.368C286.527 358.88 286.095 359.307 285.519 359.648C284.954 359.979 284.292 360.144 283.535 360.144C282.756 360.144 282.052 359.952 281.423 359.568C280.794 359.184 280.298 358.645 279.935 357.952C279.572 357.259 279.391 356.469 279.391 355.584ZM286.815 355.6C286.815 354.939 286.682 354.363 286.415 353.872C286.148 353.381 285.786 353.008 285.327 352.752C284.879 352.485 284.383 352.352 283.839 352.352C283.295 352.352 282.799 352.48 282.351 352.736C281.903 352.992 281.546 353.365 281.279 353.856C281.012 354.347 280.879 354.923 280.879 355.584C280.879 356.256 281.012 356.843 281.279 357.344C281.546 357.835 281.903 358.213 282.351 358.48C282.799 358.736 283.295 358.864 283.839 358.864C284.383 358.864 284.879 358.736 285.327 358.48C285.786 358.213 286.148 357.835 286.415 357.344C286.682 356.843 286.815 356.261 286.815 355.6ZM295.765 349.808C295.488 349.808 295.253 349.712 295.061 349.52C294.869 349.328 294.773 349.093 294.773 348.816C294.773 348.539 294.869 348.304 295.061 348.112C295.253 347.92 295.488 347.824 295.765 347.824C296.032 347.824 296.256 347.92 296.437 348.112C296.629 348.304 296.725 348.539 296.725 348.816C296.725 349.093 296.629 349.328 296.437 349.52C296.256 349.712 296.032 349.808 295.765 349.808ZM296.469 351.232V360H295.013V351.232H296.469ZM303.223 351.072C304.289 351.072 305.153 351.397 305.815 352.048C306.476 352.688 306.807 353.616 306.807 354.832V360H305.367V355.04C305.367 354.165 305.148 353.499 304.711 353.04C304.273 352.571 303.676 352.336 302.919 352.336C302.151 352.336 301.537 352.576 301.079 353.056C300.631 353.536 300.407 354.235 300.407 355.152V360H298.951V351.232H300.407V352.48C300.695 352.032 301.084 351.685 301.575 351.44C302.076 351.195 302.625 351.072 303.223 351.072ZM312.753 352.432H310.913V360H309.457V352.432H308.321V351.232H309.457V350.608C309.457 349.627 309.708 348.912 310.209 348.464C310.721 348.005 311.537 347.776 312.657 347.776V348.992C312.017 348.992 311.564 349.12 311.297 349.376C311.041 349.621 310.913 350.032 310.913 350.608V351.232H312.753V352.432ZM318.275 360.144C317.453 360.144 316.707 359.957 316.035 359.584C315.373 359.211 314.851 358.683 314.467 358C314.093 357.307 313.907 356.507 313.907 355.6C313.907 354.704 314.099 353.915 314.483 353.232C314.877 352.539 315.411 352.011 316.083 351.648C316.755 351.275 317.507 351.088 318.339 351.088C319.171 351.088 319.923 351.275 320.595 351.648C321.267 352.011 321.795 352.533 322.179 353.216C322.573 353.899 322.771 354.693 322.771 355.6C322.771 356.507 322.568 357.307 322.163 358C321.768 358.683 321.229 359.211 320.547 359.584C319.864 359.957 319.107 360.144 318.275 360.144ZM318.275 358.864C318.797 358.864 319.288 358.741 319.747 358.496C320.205 358.251 320.573 357.883 320.851 357.392C321.139 356.901 321.283 356.304 321.283 355.6C321.283 354.896 321.144 354.299 320.867 353.808C320.589 353.317 320.227 352.955 319.779 352.72C319.331 352.475 318.845 352.352 318.323 352.352C317.789 352.352 317.299 352.475 316.851 352.72C316.413 352.955 316.061 353.317 315.795 353.808C315.528 354.299 315.395 354.896 315.395 355.6C315.395 356.315 315.523 356.917 315.779 357.408C316.045 357.899 316.397 358.267 316.835 358.512C317.272 358.747 317.752 358.864 318.275 358.864ZM326.141 352.656C326.397 352.155 326.76 351.765 327.229 351.488C327.709 351.211 328.29 351.072 328.973 351.072V352.576H328.589C326.957 352.576 326.141 353.461 326.141 355.232V360H324.685V351.232H326.141V352.656ZM341.198 351.072C341.881 351.072 342.489 351.216 343.022 351.504C343.555 351.781 343.977 352.203 344.286 352.768C344.595 353.333 344.75 354.021 344.75 354.832V360H343.31V355.04C343.31 354.165 343.091 353.499 342.654 353.04C342.227 352.571 341.646 352.336 340.91 352.336C340.153 352.336 339.55 352.581 339.102 353.072C338.654 353.552 338.43 354.251 338.43 355.168V360H336.99V355.04C336.99 354.165 336.771 353.499 336.334 353.04C335.907 352.571 335.326 352.336 334.59 352.336C333.833 352.336 333.23 352.581 332.782 353.072C332.334 353.552 332.11 354.251 332.11 355.168V360H330.654V351.232H332.11V352.496C332.398 352.037 332.782 351.685 333.262 351.44C333.753 351.195 334.291 351.072 334.878 351.072C335.614 351.072 336.265 351.237 336.83 351.568C337.395 351.899 337.817 352.384 338.094 353.024C338.339 352.405 338.745 351.925 339.31 351.584C339.875 351.243 340.505 351.072 341.198 351.072ZM346.594 355.584C346.594 354.688 346.776 353.904 347.138 353.232C347.501 352.549 347.997 352.021 348.626 351.648C349.266 351.275 349.976 351.088 350.754 351.088C351.522 351.088 352.189 351.253 352.754 351.584C353.32 351.915 353.741 352.331 354.018 352.832V351.232H355.49V360H354.018V358.368C353.73 358.88 353.298 359.307 352.722 359.648C352.157 359.979 351.496 360.144 350.738 360.144C349.96 360.144 349.256 359.952 348.626 359.568C347.997 359.184 347.501 358.645 347.138 357.952C346.776 357.259 346.594 356.469 346.594 355.584ZM354.018 355.6C354.018 354.939 353.885 354.363 353.618 353.872C353.352 353.381 352.989 353.008 352.53 352.752C352.082 352.485 351.586 352.352 351.042 352.352C350.498 352.352 350.002 352.48 349.554 352.736C349.106 352.992 348.749 353.365 348.482 353.856C348.216 354.347 348.082 354.923 348.082 355.584C348.082 356.256 348.216 356.843 348.482 357.344C348.749 357.835 349.106 358.213 349.554 358.48C350.002 358.736 350.498 358.864 351.042 358.864C351.586 358.864 352.082 358.736 352.53 358.48C352.989 358.213 353.352 357.835 353.618 357.344C353.885 356.843 354.018 356.261 354.018 355.6ZM361.679 358.912C362.319 358.912 362.852 358.763 363.279 358.464C363.705 358.165 363.999 357.739 364.159 357.184H365.727C365.513 358.016 365.092 358.699 364.463 359.232C363.844 359.755 363.065 360.053 362.127 360.128V360.928C362.756 360.917 363.257 361.051 363.631 361.328C364.004 361.605 364.191 362 364.191 362.512C364.191 363.013 364.009 363.413 363.647 363.712C363.284 364.011 362.815 364.16 362.239 364.16H360.399V363.216H361.951C362.303 363.216 362.559 363.163 362.719 363.056C362.889 362.949 362.975 362.768 362.975 362.512C362.975 362.267 362.889 362.091 362.719 361.984C362.559 361.877 362.303 361.824 361.951 361.824H361.151V360.112C360.415 360.037 359.764 359.808 359.199 359.424C358.633 359.029 358.191 358.507 357.871 357.856C357.561 357.195 357.407 356.443 357.407 355.6C357.407 354.693 357.588 353.904 357.951 353.232C358.313 352.549 358.815 352.021 359.455 351.648C360.105 351.275 360.847 351.088 361.679 351.088C362.756 351.088 363.641 351.349 364.335 351.872C365.039 352.395 365.503 353.12 365.727 354.048H364.159C364.009 353.515 363.716 353.093 363.279 352.784C362.852 352.475 362.319 352.32 361.679 352.32C360.847 352.32 360.175 352.608 359.663 353.184C359.151 353.749 358.895 354.555 358.895 355.6C358.895 356.656 359.151 357.472 359.663 358.048C360.175 358.624 360.847 358.912 361.679 358.912ZM371.494 360.144C370.672 360.144 369.926 359.957 369.254 359.584C368.592 359.211 368.07 358.683 367.686 358C367.312 357.307 367.126 356.507 367.126 355.6C367.126 354.704 367.318 353.915 367.702 353.232C368.096 352.539 368.63 352.011 369.302 351.648C369.974 351.275 370.726 351.088 371.558 351.088C372.39 351.088 373.142 351.275 373.814 351.648C374.486 352.011 375.014 352.533 375.398 353.216C375.792 353.899 375.99 354.693 375.99 355.6C375.99 356.507 375.787 357.307 375.382 358C374.987 358.683 374.448 359.211 373.766 359.584C373.083 359.957 372.326 360.144 371.494 360.144ZM371.494 358.864C372.016 358.864 372.507 358.741 372.966 358.496C373.424 358.251 373.792 357.883 374.07 357.392C374.358 356.901 374.502 356.304 374.502 355.6C374.502 354.896 374.363 354.299 374.086 353.808C373.808 353.317 373.446 352.955 372.998 352.72C372.55 352.475 372.064 352.352 371.542 352.352C371.008 352.352 370.518 352.475 370.07 352.72C369.632 352.955 369.28 353.317 369.014 353.808C368.747 354.299 368.614 354.896 368.614 355.6C368.614 356.315 368.742 356.917 368.998 357.408C369.264 357.899 369.616 358.267 370.054 358.512C370.491 358.747 370.971 358.864 371.494 358.864ZM369.222 350.176C369.296 349.632 369.472 349.216 369.75 348.928C370.038 348.64 370.395 348.496 370.822 348.496C371.024 348.496 371.195 348.533 371.334 348.608C371.483 348.672 371.659 348.768 371.862 348.896C372.011 349.003 372.144 349.088 372.262 349.152C372.379 349.205 372.507 349.232 372.646 349.232C372.827 349.232 372.982 349.173 373.11 349.056C373.238 348.939 373.318 348.768 373.35 348.544H374.182C374.118 349.077 373.942 349.488 373.654 349.776C373.366 350.064 373.008 350.208 372.582 350.208C372.379 350.208 372.198 350.176 372.038 350.112C371.888 350.037 371.718 349.931 371.526 349.792C371.355 349.685 371.216 349.605 371.11 349.552C371.014 349.499 370.896 349.472 370.758 349.472C370.576 349.472 370.422 349.531 370.294 349.648C370.176 349.765 370.102 349.941 370.07 350.176H369.222ZM385.904 355.28C385.904 355.557 385.888 355.851 385.856 356.16H378.848C378.901 357.024 379.195 357.701 379.728 358.192C380.272 358.672 380.928 358.912 381.696 358.912C382.325 358.912 382.848 358.768 383.264 358.48C383.691 358.181 383.989 357.787 384.16 357.296H385.728C385.493 358.139 385.024 358.827 384.32 359.36C383.616 359.883 382.741 360.144 381.696 360.144C380.864 360.144 380.117 359.957 379.456 359.584C378.805 359.211 378.293 358.683 377.92 358C377.547 357.307 377.36 356.507 377.36 355.6C377.36 354.693 377.541 353.899 377.904 353.216C378.267 352.533 378.773 352.011 379.424 351.648C380.085 351.275 380.843 351.088 381.696 351.088C382.528 351.088 383.264 351.269 383.904 351.632C384.544 351.995 385.035 352.496 385.376 353.136C385.728 353.765 385.904 354.48 385.904 355.28ZM384.4 354.976C384.4 354.421 384.277 353.947 384.032 353.552C383.787 353.147 383.451 352.843 383.024 352.64C382.608 352.427 382.144 352.32 381.632 352.32C380.896 352.32 380.267 352.555 379.744 353.024C379.232 353.493 378.939 354.144 378.864 354.976H384.4ZM390.93 360.144C390.258 360.144 389.655 360.032 389.122 359.808C388.588 359.573 388.167 359.253 387.858 358.848C387.548 358.432 387.378 357.957 387.346 357.424H388.85C388.892 357.861 389.095 358.219 389.458 358.496C389.831 358.773 390.316 358.912 390.914 358.912C391.468 358.912 391.906 358.789 392.226 358.544C392.546 358.299 392.706 357.989 392.706 357.616C392.706 357.232 392.535 356.949 392.194 356.768C391.852 356.576 391.324 356.389 390.61 356.208C389.959 356.037 389.426 355.867 389.01 355.696C388.604 355.515 388.252 355.253 387.954 354.912C387.666 354.56 387.522 354.101 387.522 353.536C387.522 353.088 387.655 352.677 387.922 352.304C388.188 351.931 388.567 351.637 389.058 351.424C389.548 351.2 390.108 351.088 390.738 351.088C391.708 351.088 392.492 351.333 393.09 351.824C393.687 352.315 394.007 352.987 394.05 353.84H392.594C392.562 353.381 392.375 353.013 392.034 352.736C391.703 352.459 391.255 352.32 390.69 352.32C390.167 352.32 389.751 352.432 389.442 352.656C389.132 352.88 388.978 353.173 388.978 353.536C388.978 353.824 389.068 354.064 389.25 354.256C389.442 354.437 389.676 354.587 389.954 354.704C390.242 354.811 390.636 354.933 391.138 355.072C391.767 355.243 392.279 355.413 392.674 355.584C393.068 355.744 393.404 355.989 393.682 356.32C393.97 356.651 394.119 357.083 394.13 357.616C394.13 358.096 393.996 358.528 393.73 358.912C393.463 359.296 393.084 359.6 392.594 359.824C392.114 360.037 391.559 360.144 390.93 360.144ZM399.907 355.584C399.907 354.688 400.088 353.904 400.451 353.232C400.813 352.549 401.309 352.021 401.939 351.648C402.579 351.275 403.293 351.088 404.083 351.088C404.765 351.088 405.4 351.248 405.987 351.568C406.573 351.877 407.021 352.288 407.331 352.8V348.16H408.803V360H407.331V358.352C407.043 358.875 406.616 359.307 406.051 359.648C405.485 359.979 404.824 360.144 404.067 360.144C403.288 360.144 402.579 359.952 401.939 359.568C401.309 359.184 400.813 358.645 400.451 357.952C400.088 357.259 399.907 356.469 399.907 355.584ZM407.331 355.6C407.331 354.939 407.197 354.363 406.931 353.872C406.664 353.381 406.301 353.008 405.843 352.752C405.395 352.485 404.899 352.352 404.355 352.352C403.811 352.352 403.315 352.48 402.867 352.736C402.419 352.992 402.061 353.365 401.795 353.856C401.528 354.347 401.395 354.923 401.395 355.584C401.395 356.256 401.528 356.843 401.795 357.344C402.061 357.835 402.419 358.213 402.867 358.48C403.315 358.736 403.811 358.864 404.355 358.864C404.899 358.864 405.395 358.736 405.843 358.48C406.301 358.213 406.664 357.835 406.931 357.344C407.197 356.843 407.331 356.261 407.331 355.6ZM419.263 355.28C419.263 355.557 419.247 355.851 419.215 356.16H412.207C412.261 357.024 412.554 357.701 413.087 358.192C413.631 358.672 414.287 358.912 415.055 358.912C415.685 358.912 416.207 358.768 416.623 358.48C417.05 358.181 417.349 357.787 417.519 357.296H419.087C418.853 358.139 418.383 358.827 417.679 359.36C416.975 359.883 416.101 360.144 415.055 360.144C414.223 360.144 413.477 359.957 412.815 359.584C412.165 359.211 411.653 358.683 411.279 358C410.906 357.307 410.719 356.507 410.719 355.6C410.719 354.693 410.901 353.899 411.263 353.216C411.626 352.533 412.133 352.011 412.783 351.648C413.445 351.275 414.202 351.088 415.055 351.088C415.887 351.088 416.623 351.269 417.263 351.632C417.903 351.995 418.394 352.496 418.735 353.136C419.087 353.765 419.263 354.48 419.263 355.28ZM417.759 354.976C417.759 354.421 417.637 353.947 417.391 353.552C417.146 353.147 416.81 352.843 416.383 352.64C415.967 352.427 415.503 352.32 414.991 352.32C414.255 352.32 413.626 352.555 413.103 353.024C412.591 353.493 412.298 354.144 412.223 354.976H417.759ZM433.227 351.232V360H431.771V358.704C431.493 359.152 431.104 359.504 430.603 359.76C430.112 360.005 429.568 360.128 428.971 360.128C428.288 360.128 427.675 359.989 427.131 359.712C426.587 359.424 426.155 358.997 425.835 358.432C425.525 357.867 425.371 357.179 425.371 356.368V351.232H426.811V356.176C426.811 357.04 427.029 357.707 427.467 358.176C427.904 358.635 428.501 358.864 429.259 358.864C430.037 358.864 430.651 358.624 431.099 358.144C431.547 357.664 431.771 356.965 431.771 356.048V351.232H433.227ZM438.789 360.144C438.117 360.144 437.514 360.032 436.981 359.808C436.448 359.573 436.026 359.253 435.717 358.848C435.408 358.432 435.237 357.957 435.205 357.424H436.709C436.752 357.861 436.954 358.219 437.317 358.496C437.69 358.773 438.176 358.912 438.773 358.912C439.328 358.912 439.765 358.789 440.085 358.544C440.405 358.299 440.565 357.989 440.565 357.616C440.565 357.232 440.394 356.949 440.053 356.768C439.712 356.576 439.184 356.389 438.469 356.208C437.818 356.037 437.285 355.867 436.869 355.696C436.464 355.515 436.112 355.253 435.813 354.912C435.525 354.56 435.381 354.101 435.381 353.536C435.381 353.088 435.514 352.677 435.781 352.304C436.048 351.931 436.426 351.637 436.917 351.424C437.408 351.2 437.968 351.088 438.597 351.088C439.568 351.088 440.352 351.333 440.949 351.824C441.546 352.315 441.866 352.987 441.909 353.84H440.453C440.421 353.381 440.234 353.013 439.893 352.736C439.562 352.459 439.114 352.32 438.549 352.32C438.026 352.32 437.61 352.432 437.301 352.656C436.992 352.88 436.837 353.173 436.837 353.536C436.837 353.824 436.928 354.064 437.109 354.256C437.301 354.437 437.536 354.587 437.813 354.704C438.101 354.811 438.496 354.933 438.997 355.072C439.626 355.243 440.138 355.413 440.533 355.584C440.928 355.744 441.264 355.989 441.541 356.32C441.829 356.651 441.978 357.083 441.989 357.616C441.989 358.096 441.856 358.528 441.589 358.912C441.322 359.296 440.944 359.6 440.453 359.824C439.973 360.037 439.418 360.144 438.789 360.144ZM451.821 351.232V360H450.365V358.704C450.087 359.152 449.698 359.504 449.197 359.76C448.706 360.005 448.162 360.128 447.565 360.128C446.882 360.128 446.269 359.989 445.725 359.712C445.181 359.424 444.749 358.997 444.429 358.432C444.119 357.867 443.965 357.179 443.965 356.368V351.232H445.405V356.176C445.405 357.04 445.623 357.707 446.061 358.176C446.498 358.635 447.095 358.864 447.853 358.864C448.631 358.864 449.245 358.624 449.693 358.144C450.141 357.664 450.365 356.965 450.365 356.048V351.232H451.821ZM453.735 355.584C453.735 354.688 453.916 353.904 454.279 353.232C454.642 352.549 455.138 352.021 455.767 351.648C456.407 351.275 457.116 351.088 457.895 351.088C458.663 351.088 459.33 351.253 459.895 351.584C460.46 351.915 460.882 352.331 461.159 352.832V351.232H462.631V360H461.159V358.368C460.871 358.88 460.439 359.307 459.863 359.648C459.298 359.979 458.636 360.144 457.879 360.144C457.1 360.144 456.396 359.952 455.767 359.568C455.138 359.184 454.642 358.645 454.279 357.952C453.916 357.259 453.735 356.469 453.735 355.584ZM461.159 355.6C461.159 354.939 461.026 354.363 460.759 353.872C460.492 353.381 460.13 353.008 459.671 352.752C459.223 352.485 458.727 352.352 458.183 352.352C457.639 352.352 457.143 352.48 456.695 352.736C456.247 352.992 455.89 353.365 455.623 353.856C455.356 354.347 455.223 354.923 455.223 355.584C455.223 356.256 455.356 356.843 455.623 357.344C455.89 357.835 456.247 358.213 456.695 358.48C457.143 358.736 457.639 358.864 458.183 358.864C458.727 358.864 459.223 358.736 459.671 358.48C460.13 358.213 460.492 357.835 460.759 357.344C461.026 356.843 461.159 356.261 461.159 355.6ZM460.023 348.752L456.615 350.576V349.488L460.023 347.488V348.752ZM466.547 352.656C466.803 352.155 467.166 351.765 467.635 351.488C468.115 351.211 468.697 351.072 469.379 351.072V352.576H468.995C467.363 352.576 466.547 353.461 466.547 355.232V360H465.091V351.232H466.547V352.656ZM471.812 349.808C471.535 349.808 471.3 349.712 471.108 349.52C470.916 349.328 470.82 349.093 470.82 348.816C470.82 348.539 470.916 348.304 471.108 348.112C471.3 347.92 471.535 347.824 471.812 347.824C472.079 347.824 472.303 347.92 472.484 348.112C472.676 348.304 472.772 348.539 472.772 348.816C472.772 349.093 472.676 349.328 472.484 349.52C472.303 349.712 472.079 349.808 471.812 349.808ZM472.516 351.232V360H471.06V351.232H472.516ZM478.822 360.144C478 360.144 477.254 359.957 476.582 359.584C475.92 359.211 475.398 358.683 475.014 358C474.64 357.307 474.454 356.507 474.454 355.6C474.454 354.704 474.646 353.915 475.03 353.232C475.424 352.539 475.958 352.011 476.63 351.648C477.302 351.275 478.054 351.088 478.886 351.088C479.718 351.088 480.47 351.275 481.142 351.648C481.814 352.011 482.342 352.533 482.726 353.216C483.12 353.899 483.318 354.693 483.318 355.6C483.318 356.507 483.115 357.307 482.71 358C482.315 358.683 481.776 359.211 481.094 359.584C480.411 359.957 479.654 360.144 478.822 360.144ZM478.822 358.864C479.344 358.864 479.835 358.741 480.294 358.496C480.752 358.251 481.12 357.883 481.398 357.392C481.686 356.901 481.83 356.304 481.83 355.6C481.83 354.896 481.691 354.299 481.414 353.808C481.136 353.317 480.774 352.955 480.326 352.72C479.878 352.475 479.392 352.352 478.87 352.352C478.336 352.352 477.846 352.475 477.398 352.72C476.96 352.955 476.608 353.317 476.342 353.808C476.075 354.299 475.942 354.896 475.942 355.6C475.942 356.315 476.07 356.917 476.326 357.408C476.592 357.899 476.944 358.267 477.382 358.512C477.819 358.747 478.299 358.864 478.822 358.864ZM497.498 355.28C497.498 355.557 497.482 355.851 497.45 356.16H490.442C490.495 357.024 490.788 357.701 491.322 358.192C491.866 358.672 492.522 358.912 493.29 358.912C493.919 358.912 494.442 358.768 494.858 358.48C495.284 358.181 495.583 357.787 495.754 357.296H497.322C497.087 358.139 496.618 358.827 495.914 359.36C495.21 359.883 494.335 360.144 493.29 360.144C492.458 360.144 491.711 359.957 491.05 359.584C490.399 359.211 489.887 358.683 489.514 358C489.14 357.307 488.954 356.507 488.954 355.6C488.954 354.693 489.135 353.899 489.498 353.216C489.86 352.533 490.367 352.011 491.018 351.648C491.679 351.275 492.436 351.088 493.29 351.088C494.122 351.088 494.858 351.269 495.498 351.632C496.138 351.995 496.628 352.496 496.97 353.136C497.322 353.765 497.498 354.48 497.498 355.28ZM495.994 354.976C495.994 354.421 495.871 353.947 495.626 353.552C495.38 353.147 495.044 352.843 494.618 352.64C494.202 352.427 493.738 352.32 493.226 352.32C492.49 352.32 491.86 352.555 491.338 353.024C490.826 353.493 490.532 354.144 490.458 354.976H495.994ZM258.336 386.144C257.664 386.144 257.061 386.032 256.528 385.808C255.995 385.573 255.573 385.253 255.264 384.848C254.955 384.432 254.784 383.957 254.752 383.424H256.256C256.299 383.861 256.501 384.219 256.864 384.496C257.237 384.773 257.723 384.912 258.32 384.912C258.875 384.912 259.312 384.789 259.632 384.544C259.952 384.299 260.112 383.989 260.112 383.616C260.112 383.232 259.941 382.949 259.6 382.768C259.259 382.576 258.731 382.389 258.016 382.208C257.365 382.037 256.832 381.867 256.416 381.696C256.011 381.515 255.659 381.253 255.36 380.912C255.072 380.56 254.928 380.101 254.928 379.536C254.928 379.088 255.061 378.677 255.328 378.304C255.595 377.931 255.973 377.637 256.464 377.424C256.955 377.2 257.515 377.088 258.144 377.088C259.115 377.088 259.899 377.333 260.496 377.824C261.093 378.315 261.413 378.987 261.456 379.84H260C259.968 379.381 259.781 379.013 259.44 378.736C259.109 378.459 258.661 378.32 258.096 378.32C257.573 378.32 257.157 378.432 256.848 378.656C256.539 378.88 256.384 379.173 256.384 379.536C256.384 379.824 256.475 380.064 256.656 380.256C256.848 380.437 257.083 380.587 257.36 380.704C257.648 380.811 258.043 380.933 258.544 381.072C259.173 381.243 259.685 381.413 260.08 381.584C260.475 381.744 260.811 381.989 261.088 382.32C261.376 382.651 261.525 383.083 261.536 383.616C261.536 384.096 261.403 384.528 261.136 384.912C260.869 385.296 260.491 385.6 260 385.824C259.52 386.037 258.965 386.144 258.336 386.144ZM271.591 381.28C271.591 381.557 271.575 381.851 271.543 382.16H264.535C264.589 383.024 264.882 383.701 265.415 384.192C265.959 384.672 266.615 384.912 267.383 384.912C268.013 384.912 268.535 384.768 268.951 384.48C269.378 384.181 269.677 383.787 269.847 383.296H271.415C271.181 384.139 270.711 384.827 270.007 385.36C269.303 385.883 268.429 386.144 267.383 386.144C266.551 386.144 265.805 385.957 265.143 385.584C264.493 385.211 263.981 384.683 263.607 384C263.234 383.307 263.047 382.507 263.047 381.6C263.047 380.693 263.229 379.899 263.591 379.216C263.954 378.533 264.461 378.011 265.111 377.648C265.773 377.275 266.53 377.088 267.383 377.088C268.215 377.088 268.951 377.269 269.591 377.632C270.231 377.995 270.722 378.496 271.063 379.136C271.415 379.765 271.591 380.48 271.591 381.28ZM270.087 380.976C270.087 380.421 269.965 379.947 269.719 379.552C269.474 379.147 269.138 378.843 268.711 378.64C268.295 378.427 267.831 378.32 267.319 378.32C266.583 378.32 265.954 378.555 265.431 379.024C264.919 379.493 264.626 380.144 264.551 380.976H270.087ZM281.289 377.232V386H279.833V384.704C279.556 385.152 279.167 385.504 278.665 385.76C278.175 386.005 277.631 386.128 277.033 386.128C276.351 386.128 275.737 385.989 275.193 385.712C274.649 385.424 274.217 384.997 273.897 384.432C273.588 383.867 273.433 383.179 273.433 382.368V377.232H274.873V382.176C274.873 383.04 275.092 383.707 275.529 384.176C275.967 384.635 276.564 384.864 277.321 384.864C278.1 384.864 278.713 384.624 279.161 384.144C279.609 383.664 279.833 382.965 279.833 382.048V377.232H281.289ZM286.852 386.144C286.18 386.144 285.577 386.032 285.044 385.808C284.51 385.573 284.089 385.253 283.78 384.848C283.47 384.432 283.3 383.957 283.268 383.424H284.772C284.814 383.861 285.017 384.219 285.38 384.496C285.753 384.773 286.238 384.912 286.836 384.912C287.39 384.912 287.828 384.789 288.148 384.544C288.468 384.299 288.628 383.989 288.628 383.616C288.628 383.232 288.457 382.949 288.116 382.768C287.774 382.576 287.246 382.389 286.532 382.208C285.881 382.037 285.348 381.867 284.932 381.696C284.526 381.515 284.174 381.253 283.876 380.912C283.588 380.56 283.444 380.101 283.444 379.536C283.444 379.088 283.577 378.677 283.844 378.304C284.11 377.931 284.489 377.637 284.98 377.424C285.47 377.2 286.03 377.088 286.66 377.088C287.63 377.088 288.414 377.333 289.012 377.824C289.609 378.315 289.929 378.987 289.972 379.84H288.516C288.484 379.381 288.297 379.013 287.956 378.736C287.625 378.459 287.177 378.32 286.612 378.32C286.089 378.32 285.673 378.432 285.364 378.656C285.054 378.88 284.9 379.173 284.9 379.536C284.9 379.824 284.99 380.064 285.172 380.256C285.364 380.437 285.598 380.587 285.876 380.704C286.164 380.811 286.558 380.933 287.06 381.072C287.689 381.243 288.201 381.413 288.596 381.584C288.99 381.744 289.326 381.989 289.604 382.32C289.892 382.651 290.041 383.083 290.052 383.616C290.052 384.096 289.918 384.528 289.652 384.912C289.385 385.296 289.006 385.6 288.516 385.824C288.036 386.037 287.481 386.144 286.852 386.144ZM297.829 378.656C298.085 378.155 298.447 377.765 298.917 377.488C299.397 377.211 299.978 377.072 300.661 377.072V378.576H300.277C298.645 378.576 297.829 379.461 297.829 381.232V386H296.373V377.232H297.829V378.656ZM310.341 381.28C310.341 381.557 310.325 381.851 310.293 382.16H303.285C303.339 383.024 303.632 383.701 304.165 384.192C304.709 384.672 305.365 384.912 306.133 384.912C306.763 384.912 307.285 384.768 307.701 384.48C308.128 384.181 308.427 383.787 308.597 383.296H310.165C309.931 384.139 309.461 384.827 308.757 385.36C308.053 385.883 307.179 386.144 306.133 386.144C305.301 386.144 304.555 385.957 303.893 385.584C303.243 385.211 302.731 384.683 302.357 384C301.984 383.307 301.797 382.507 301.797 381.6C301.797 380.693 301.979 379.899 302.341 379.216C302.704 378.533 303.211 378.011 303.861 377.648C304.523 377.275 305.28 377.088 306.133 377.088C306.965 377.088 307.701 377.269 308.341 377.632C308.981 377.995 309.472 378.496 309.813 379.136C310.165 379.765 310.341 380.48 310.341 381.28ZM308.837 380.976C308.837 380.421 308.715 379.947 308.469 379.552C308.224 379.147 307.888 378.843 307.461 378.64C307.045 378.427 306.581 378.32 306.069 378.32C305.333 378.32 304.704 378.555 304.181 379.024C303.669 379.493 303.376 380.144 303.301 380.976H308.837ZM313.719 378.848C314.007 378.347 314.434 377.931 314.999 377.6C315.575 377.259 316.242 377.088 316.999 377.088C317.778 377.088 318.482 377.275 319.111 377.648C319.751 378.021 320.253 378.549 320.615 379.232C320.978 379.904 321.159 380.688 321.159 381.584C321.159 382.469 320.978 383.259 320.615 383.952C320.253 384.645 319.751 385.184 319.111 385.568C318.482 385.952 317.778 386.144 316.999 386.144C316.253 386.144 315.591 385.979 315.015 385.648C314.45 385.307 314.018 384.885 313.719 384.384V390.16H312.263V377.232H313.719V378.848ZM319.671 381.584C319.671 380.923 319.538 380.347 319.271 379.856C319.005 379.365 318.642 378.992 318.183 378.736C317.735 378.48 317.239 378.352 316.695 378.352C316.162 378.352 315.666 378.485 315.207 378.752C314.759 379.008 314.397 379.387 314.119 379.888C313.853 380.379 313.719 380.949 313.719 381.6C313.719 382.261 313.853 382.843 314.119 383.344C314.397 383.835 314.759 384.213 315.207 384.48C315.666 384.736 316.162 384.864 316.695 384.864C317.239 384.864 317.735 384.736 318.183 384.48C318.642 384.213 319.005 383.835 319.271 383.344C319.538 382.843 319.671 382.256 319.671 381.584ZM326.9 386.144C326.078 386.144 325.332 385.957 324.66 385.584C323.998 385.211 323.476 384.683 323.092 384C322.718 383.307 322.532 382.507 322.532 381.6C322.532 380.704 322.724 379.915 323.108 379.232C323.502 378.539 324.036 378.011 324.708 377.648C325.38 377.275 326.132 377.088 326.964 377.088C327.796 377.088 328.548 377.275 329.22 377.648C329.892 378.011 330.42 378.533 330.804 379.216C331.198 379.899 331.396 380.693 331.396 381.6C331.396 382.507 331.193 383.307 330.788 384C330.393 384.683 329.854 385.211 329.172 385.584C328.489 385.957 327.732 386.144 326.9 386.144ZM326.9 384.864C327.422 384.864 327.913 384.741 328.372 384.496C328.83 384.251 329.198 383.883 329.476 383.392C329.764 382.901 329.908 382.304 329.908 381.6C329.908 380.896 329.769 380.299 329.492 379.808C329.214 379.317 328.852 378.955 328.404 378.72C327.956 378.475 327.47 378.352 326.948 378.352C326.414 378.352 325.924 378.475 325.476 378.72C325.038 378.955 324.686 379.317 324.42 379.808C324.153 380.299 324.02 380.896 324.02 381.6C324.02 382.315 324.148 382.917 324.404 383.408C324.67 383.899 325.022 384.267 325.46 384.512C325.897 384.747 326.377 384.864 326.9 384.864ZM336.414 386.144C335.742 386.144 335.139 386.032 334.606 385.808C334.073 385.573 333.651 385.253 333.342 384.848C333.033 384.432 332.862 383.957 332.83 383.424H334.334C334.377 383.861 334.579 384.219 334.942 384.496C335.315 384.773 335.801 384.912 336.398 384.912C336.953 384.912 337.39 384.789 337.71 384.544C338.03 384.299 338.19 383.989 338.19 383.616C338.19 383.232 338.019 382.949 337.678 382.768C337.337 382.576 336.809 382.389 336.094 382.208C335.443 382.037 334.91 381.867 334.494 381.696C334.089 381.515 333.737 381.253 333.438 380.912C333.15 380.56 333.006 380.101 333.006 379.536C333.006 379.088 333.139 378.677 333.406 378.304C333.673 377.931 334.051 377.637 334.542 377.424C335.033 377.2 335.593 377.088 336.222 377.088C337.193 377.088 337.977 377.333 338.574 377.824C339.171 378.315 339.491 378.987 339.534 379.84H338.078C338.046 379.381 337.859 379.013 337.518 378.736C337.187 378.459 336.739 378.32 336.174 378.32C335.651 378.32 335.235 378.432 334.926 378.656C334.617 378.88 334.462 379.173 334.462 379.536C334.462 379.824 334.553 380.064 334.734 380.256C334.926 380.437 335.161 380.587 335.438 380.704C335.726 380.811 336.121 380.933 336.622 381.072C337.251 381.243 337.763 381.413 338.158 381.584C338.553 381.744 338.889 381.989 339.166 382.32C339.454 382.651 339.603 383.083 339.614 383.616C339.614 384.096 339.481 384.528 339.214 384.912C338.947 385.296 338.569 385.6 338.078 385.824C337.598 386.037 337.043 386.144 336.414 386.144ZM342.422 375.808C342.144 375.808 341.91 375.712 341.718 375.52C341.526 375.328 341.43 375.093 341.43 374.816C341.43 374.539 341.526 374.304 341.718 374.112C341.91 373.92 342.144 373.824 342.422 373.824C342.688 373.824 342.912 373.92 343.094 374.112C343.286 374.304 343.382 374.539 343.382 374.816C343.382 375.093 343.286 375.328 343.094 375.52C342.912 375.712 342.688 375.808 342.422 375.808ZM343.126 377.232V386H341.67V377.232H343.126ZM347.383 378.432V383.6C347.383 384.027 347.474 384.331 347.655 384.512C347.836 384.683 348.151 384.768 348.599 384.768H349.671V386H348.359C347.548 386 346.94 385.813 346.535 385.44C346.13 385.067 345.927 384.453 345.927 383.6V378.432H344.791V377.232H345.927V375.024H347.383V377.232H349.671V378.432H347.383ZM355.259 386.144C354.438 386.144 353.691 385.957 353.019 385.584C352.358 385.211 351.835 384.683 351.451 384C351.078 383.307 350.891 382.507 350.891 381.6C350.891 380.704 351.083 379.915 351.467 379.232C351.862 378.539 352.395 378.011 353.067 377.648C353.739 377.275 354.491 377.088 355.323 377.088C356.155 377.088 356.907 377.275 357.579 377.648C358.251 378.011 358.779 378.533 359.163 379.216C359.558 379.899 359.755 380.693 359.755 381.6C359.755 382.507 359.552 383.307 359.147 384C358.752 384.683 358.214 385.211 357.531 385.584C356.848 385.957 356.091 386.144 355.259 386.144ZM355.259 384.864C355.782 384.864 356.272 384.741 356.731 384.496C357.19 384.251 357.558 383.883 357.835 383.392C358.123 382.901 358.267 382.304 358.267 381.6C358.267 380.896 358.128 380.299 357.851 379.808C357.574 379.317 357.211 378.955 356.763 378.72C356.315 378.475 355.83 378.352 355.307 378.352C354.774 378.352 354.283 378.475 353.835 378.72C353.398 378.955 353.046 379.317 352.779 379.808C352.512 380.299 352.379 380.896 352.379 381.6C352.379 382.315 352.507 382.917 352.763 383.408C353.03 383.899 353.382 384.267 353.819 384.512C354.256 384.747 354.736 384.864 355.259 384.864ZM356.891 374.64L353.483 376.464V375.376L356.891 373.376V374.64ZM363.126 378.656C363.382 378.155 363.744 377.765 364.214 377.488C364.694 377.211 365.275 377.072 365.958 377.072V378.576H365.574C363.942 378.576 363.126 379.461 363.126 381.232V386H361.67V377.232H363.126V378.656ZM368.39 375.808C368.113 375.808 367.878 375.712 367.686 375.52C367.494 375.328 367.398 375.093 367.398 374.816C367.398 374.539 367.494 374.304 367.686 374.112C367.878 373.92 368.113 373.824 368.39 373.824C368.657 373.824 368.881 373.92 369.062 374.112C369.254 374.304 369.35 374.539 369.35 374.816C369.35 375.093 369.254 375.328 369.062 375.52C368.881 375.712 368.657 375.808 368.39 375.808ZM369.094 377.232V386H367.638V377.232H369.094ZM375.4 386.144C374.578 386.144 373.832 385.957 373.16 385.584C372.498 385.211 371.976 384.683 371.592 384C371.218 383.307 371.032 382.507 371.032 381.6C371.032 380.704 371.224 379.915 371.608 379.232C372.002 378.539 372.536 378.011 373.208 377.648C373.88 377.275 374.632 377.088 375.464 377.088C376.296 377.088 377.048 377.275 377.72 377.648C378.392 378.011 378.92 378.533 379.304 379.216C379.698 379.899 379.896 380.693 379.896 381.6C379.896 382.507 379.693 383.307 379.288 384C378.893 384.683 378.354 385.211 377.672 385.584C376.989 385.957 376.232 386.144 375.4 386.144ZM375.4 384.864C375.922 384.864 376.413 384.741 376.872 384.496C377.33 384.251 377.698 383.883 377.976 383.392C378.264 382.901 378.408 382.304 378.408 381.6C378.408 380.896 378.269 380.299 377.992 379.808C377.714 379.317 377.352 378.955 376.904 378.72C376.456 378.475 375.97 378.352 375.448 378.352C374.914 378.352 374.424 378.475 373.976 378.72C373.538 378.955 373.186 379.317 372.92 379.808C372.653 380.299 372.52 380.896 372.52 381.6C372.52 382.315 372.648 382.917 372.904 383.408C373.17 383.899 373.522 384.267 373.96 384.512C374.397 384.747 374.877 384.864 375.4 384.864ZM384.914 386.144C384.242 386.144 383.639 386.032 383.106 385.808C382.573 385.573 382.151 385.253 381.842 384.848C381.533 384.432 381.362 383.957 381.33 383.424H382.834C382.877 383.861 383.079 384.219 383.442 384.496C383.815 384.773 384.301 384.912 384.898 384.912C385.453 384.912 385.89 384.789 386.21 384.544C386.53 384.299 386.69 383.989 386.69 383.616C386.69 383.232 386.519 382.949 386.178 382.768C385.837 382.576 385.309 382.389 384.594 382.208C383.943 382.037 383.41 381.867 382.994 381.696C382.589 381.515 382.237 381.253 381.938 380.912C381.65 380.56 381.506 380.101 381.506 379.536C381.506 379.088 381.639 378.677 381.906 378.304C382.173 377.931 382.551 377.637 383.042 377.424C383.533 377.2 384.093 377.088 384.722 377.088C385.693 377.088 386.477 377.333 387.074 377.824C387.671 378.315 387.991 378.987 388.034 379.84H386.578C386.546 379.381 386.359 379.013 386.018 378.736C385.687 378.459 385.239 378.32 384.674 378.32C384.151 378.32 383.735 378.432 383.426 378.656C383.117 378.88 382.962 379.173 382.962 379.536C382.962 379.824 383.053 380.064 383.234 380.256C383.426 380.437 383.661 380.587 383.938 380.704C384.226 380.811 384.621 380.933 385.122 381.072C385.751 381.243 386.263 381.413 386.658 381.584C387.053 381.744 387.389 381.989 387.666 382.32C387.954 382.651 388.103 383.083 388.114 383.616C388.114 384.096 387.981 384.528 387.714 384.912C387.447 385.296 387.069 385.6 386.578 385.824C386.098 386.037 385.543 386.144 384.914 386.144Z" fill="#6A6180"/>
<g opacity="0.1" clip-path="url(#clip1_140116_492)">
<path d="M1244.5 -37.0625C998.914 -37.0625 800 141.797 800 362.391C800 538.914 927.349 688.608 1103.93 741.385C1126.15 745.145 1134.3 732.781 1134.3 722.178C1134.3 712.693 1133.93 687.557 1133.75 654.258C1010.1 678.344 984.023 600.668 984.023 600.668C963.798 554.564 934.572 542.234 934.572 542.234C894.308 517.471 937.684 517.979 937.684 517.979C982.319 520.757 1005.77 559.137 1005.77 559.137C1045.4 620.214 1109.82 602.565 1135.23 592.369C1139.23 566.522 1150.67 548.941 1163.38 538.948C1064.66 528.955 960.909 494.606 960.909 341.558C960.909 297.961 978.133 262.325 1006.66 234.378C1001.65 224.283 986.653 183.667 1010.54 128.654C1010.54 128.654 1047.77 117.949 1132.78 169.609C1168.34 160.734 1206.12 156.33 1243.91 156.127C1281.69 156.33 1319.47 160.734 1355.03 169.609C1439.49 117.949 1476.71 128.654 1476.71 128.654C1500.61 183.667 1485.6 224.283 1481.16 234.378C1509.5 262.325 1526.72 297.961 1526.72 341.558C1526.72 495.012 1422.82 528.785 1323.92 538.609C1339.47 550.601 1353.92 575.093 1353.92 612.524C1353.92 665.979 1353.37 708.933 1353.37 721.907C1353.37 732.374 1361.14 744.874 1383.92 740.877C1561.76 688.438 1689 538.643 1689 362.391C1689 141.797 1489.98 -37.0625 1244.5 -37.0625Z" fill="url(#paint0_linear_140116_492)"/>
</g>
</g>
<defs>
<linearGradient id="paint0_linear_140116_492" x1="1244.5" y1="-37.0625" x2="1244.5" y2="742.074" gradientUnits="userSpaceOnUse">
<stop stop-color="white"/>
<stop offset="1" stop-color="white"/>
</linearGradient>
<clipPath id="clip0_140116_492">
<rect width="1440" height="820" fill="white"/>
</clipPath>
<clipPath id="clip1_140116_492">
<rect width="889" height="813" fill="white" transform="translate(800 -54)"/>
</clipPath>
</defs>
</svg>
