<svg width="640" height="759" viewBox="0 0 640 759" fill="none" xmlns="http://www.w3.org/2000/svg">
<g opacity="0.1" clip-path="url(#clip0_140714_2366)">
<path d="M444.5 -37.0625C198.914 -37.0625 0 141.797 0 362.391C0 538.914 127.349 688.608 303.927 741.385C326.152 745.145 334.301 732.781 334.301 722.178C334.301 712.693 333.931 687.557 333.745 654.258C210.1 678.344 184.023 600.668 184.023 600.668C163.798 554.564 134.572 542.234 134.572 542.234C94.3081 517.471 137.684 517.979 137.684 517.979C182.319 520.757 205.766 559.137 205.766 559.137C245.401 620.214 309.817 602.565 335.227 592.369C339.228 566.522 350.673 548.941 363.379 538.948C264.663 528.955 160.909 494.606 160.909 341.558C160.909 297.961 178.133 262.325 206.655 234.378C201.655 224.283 186.653 183.667 210.545 128.654C210.545 128.654 247.772 117.949 332.782 169.609C368.342 160.734 406.125 156.33 443.907 156.127C481.69 156.33 519.472 160.734 555.032 169.609C639.487 117.949 676.714 128.654 676.714 128.654C700.606 183.667 685.604 224.283 681.159 234.378C709.496 262.325 726.72 297.961 726.72 341.558C726.72 495.012 622.819 528.785 523.917 538.609C539.475 550.601 553.921 575.093 553.921 612.524C553.921 665.979 553.365 708.933 553.365 721.907C553.365 732.374 561.144 744.874 583.925 740.877C761.762 688.438 889 538.643 889 362.391C889 141.797 689.975 -37.0625 444.5 -37.0625Z" fill="url(#paint0_linear_140714_2366)"/>
</g>
<defs>
<linearGradient id="paint0_linear_140714_2366" x1="444.5" y1="-37.0625" x2="444.5" y2="742.074" gradientUnits="userSpaceOnUse">
<stop stop-color="white"/>
<stop offset="1" stop-color="white"/>
</linearGradient>
<clipPath id="clip0_140714_2366">
<rect width="889" height="813" fill="white" transform="translate(0 -54)"/>
</clipPath>
</defs>
</svg>
