<?xml version="1.0" encoding="UTF-8"?>
<svg width="23px" height="22px" viewBox="0 0 23 22" version="1.1" xmlns="http://www.w3.org/2000/svg" xmlns:xlink="http://www.w3.org/1999/xlink">
    <!-- Generator: Sketch 50.2 (55047) - http://www.bohemiancoding.com/sketch -->
    <title>icon</title>
    <desc>Created with Sketch.</desc>
    <defs></defs>
    <g id="Page-1" stroke="none" stroke-width="1" fill="none" fill-rule="evenodd">
        <g id="TWITTER-PROFILE-2018" transform="translate(-127.000000, -12.000000)" stroke="#667580" stroke-width="2">
            <g id="Header">
                <g id="Left-side" transform="translate(128.000000, 8.000000)">
                    <g id="Home" transform="translate(0.000000, 5.000000)">
                        <path d="M10.4603081,0.5 C9.61630807,0.5 0.118509755,9.063 0.0245097548,10.344 C-0.162490245,11.407 0.764509755,11.625 1.31250975,11.268 C1.78150975,11.018 2.95250975,10.729 2.95250975,10.729 C2.95250975,10.729 4.34950975,17.516 5.21250975,19.271 C6.43150975,19.99 14.3065098,19.99 15.5245098,19.271 C16.6815098,18.417 18.0565098,10.709 18.0565098,10.709 C18.0565098,10.709 18.9565098,11.018 19.4245098,11.268 C19.9725098,11.625 21.0875098,11.365 20.8995098,10.302 C20.3995098,8.875 11.3043081,0.5 10.4603081,0.5 Z M8.21250975,9.188 C8.21250975,7.946 9.21950975,6.94 10.4605098,6.94 C11.7025098,6.94 12.7085098,7.946 12.7085098,9.188 C12.7085098,10.429 11.7025098,11.436 10.4605098,11.436 C9.21950975,11.436 8.21250975,10.429 8.21250975,9.188 Z" id="icon"></path>
                    </g>
                </g>
            </g>
        </g>
    </g>
</svg>