<?xml version="1.0" encoding="UTF-8"?>
<svg width="16px" height="16px" viewBox="0 0 16 16" version="1.1" xmlns="http://www.w3.org/2000/svg" xmlns:xlink="http://www.w3.org/1999/xlink">
    <!-- Generator: Sketch 50.2 (55047) - http://www.bohemiancoding.com/sketch -->
    <title>icon</title>
    <desc>Created with Sketch.</desc>
    <defs></defs>
    <g id="Page-1" stroke="none" stroke-width="1" fill="none" fill-rule="evenodd">
        <g id="TWITTER-PROFILE-2018" transform="translate(-129.000000, -740.000000)" fill="#66757F">
            <g id="Profile" transform="translate(0.000000, 341.000000)">
                <g id="Quick-informations" transform="translate(129.000000, 350.000000)">
                    <g id="Sign-up" transform="translate(0.000000, 49.000000)">
                        <path d="M8.56774902,6.95214844 L10.7393319,6.95214844 C11.1902444,6.95214844 11.5429688,7.30903083 11.5429688,7.74926758 C11.5429688,8.19257357 11.1831683,8.54638672 10.7393319,8.54638672 L7.85148843,8.54638672 C7.40057587,8.54638672 7.04785156,8.18950432 7.04785156,7.74926758 C7.04785156,7.73981319 7.04801521,7.7303995 7.04833984,7.72102909 L7.04833984,3.76278253 C7.04833984,3.34316385 7.38847117,3 7.80804443,3 C8.23054288,3 8.56774902,3.34150937 8.56774902,3.76278253 L8.56774902,6.95214844 Z M8,16 C3.58172178,16 0,12.4182782 0,8 C0,3.58172178 3.58172178,0 8,0 C12.4182782,0 16,3.58172178 16,8 C16,12.4182782 12.4182782,16 8,16 Z M8,14.5 C11.5898511,14.5 14.5,11.5898511 14.5,8 C14.5,4.41014895 11.5898511,1.5 8,1.5 C4.41014895,1.5 1.5,4.41014895 1.5,8 C1.5,11.5898511 4.41014895,14.5 8,14.5 Z" id="icon"></path>
                    </g>
                </g>
            </g>
        </g>
    </g>
</svg>