<svg width="380" height="380" viewBox="0 0 380 380" fill="none" xmlns="http://www.w3.org/2000/svg">
<path opacity="0.02" d="M380 190C380 294.933 294.933 380 190 380C85.0778 380 0 294.933 0 190C0 85.0778 85.0778 0 190 0C294.933 0 380 85.0778 380 190Z" fill="#51B853"/>
<path opacity="0.04" d="M330 190C330 267.319 267.319 330 190 330C112.689 330 50 267.319 50 190C50 112.689 112.689 50 190 50C267.319 50 330 112.689 330 190Z" fill="#51B853"/>
<path opacity="0.04" d="M280 190C280 239.705 239.705 280 190 280C140.3 280 100 239.705 100 190C100 140.3 140.3 100 190 100C239.705 100 280 140.3 280 190Z" fill="#51B853"/>
<path fill-rule="evenodd" clip-rule="evenodd" d="M152 189.5C152 168.229 169.229 151 190.5 151C211.771 151 229 168.229 229 189.5C229 210.752 211.771 228 190.5 228C169.229 228 152 210.752 152 189.5ZM167.4 212.6L198.931 197.931L213.6 166.4L182.068 181.068L167.4 212.6ZM194.735 189.5C194.735 191.829 192.848 193.735 190.5 193.735C188.171 193.735 186.265 191.829 186.265 189.5C186.265 187.171 188.171 185.265 190.5 185.265C192.849 185.265 194.735 187.171 194.735 189.5Z" fill="#41C900"/>
</svg>
