<?xml version="1.0" encoding="UTF-8"?>
<svg width="15px" height="16px" viewBox="0 0 15 16" version="1.1" xmlns="http://www.w3.org/2000/svg" xmlns:xlink="http://www.w3.org/1999/xlink">
    <!-- Generator: Sketch 50.2 (55047) - http://www.bohemiancoding.com/sketch -->
    <title>icon</title>
    <desc>Created with Sketch.</desc>
    <defs></defs>
    <g id="Page-1" stroke="none" stroke-width="1" fill="none" fill-rule="evenodd">
        <g id="TWITTER-PROFILE-2018" transform="translate(-130.000000, -716.000000)" fill="#657786">
            <g id="Profile" transform="translate(0.000000, 341.000000)">
                <g id="Quick-informations" transform="translate(129.000000, 350.000000)">
                    <g id="Website" transform="translate(1.000000, 23.000000)">
                        <path d="M6.147,12.499 L4.027,10.378 C3.597,9.949 3.361,9.378 3.361,8.77 C3.361,8.164 3.597,7.593 4.026,7.163 L8.301,2.89 C9.174,2.015 10.701,2.015 11.575,2.89 L13.597,4.912 C14.033,5.348 14.272,5.927 14.272,6.542 C14.272,7.157 14.032,7.736 13.597,8.171 L12.332,9.436 L10.918,8.023 L12.183,6.757 C12.257,6.684 12.272,6.6 12.272,6.542 C12.272,6.495 12.26,6.403 12.183,6.326 L10.16,4.304 C9.999,4.144 9.876,4.144 9.715,4.304 L5.441,8.577 C5.374,8.644 5.361,8.719 5.361,8.77 C5.361,8.822 5.374,8.898 5.44,8.964 L7.561,11.085 L6.147,12.499 Z M2.952,16.876 L0.929,14.854 C0.494,14.419 0.254,13.84 0.254,13.225 C0.254,12.609 0.494,12.03 0.929,11.595 L2.194,10.33 L3.608,11.744 L2.343,13.009 C2.266,13.086 2.254,13.178 2.254,13.225 C2.254,13.282 2.269,13.366 2.343,13.44 L4.366,15.462 C4.527,15.622 4.651,15.622 4.811,15.462 L9.085,11.189 C9.152,11.122 9.165,11.047 9.165,10.995 C9.165,10.943 9.152,10.868 9.086,10.802 L6.965,8.682 L8.379,7.268 L10.5,9.388 C10.929,9.816 11.165,10.388 11.165,10.995 C11.165,11.602 10.929,12.174 10.499,12.602 L6.226,16.876 C5.789,17.314 5.208,17.554 4.589,17.554 C3.97,17.554 3.389,17.314 2.952,16.876 Z" id="icon"></path>
                    </g>
                </g>
            </g>
        </g>
    </g>
</svg>