<svg xmlns="http://www.w3.org/2000/svg" viewBox="0 0 74.67 58.61"><defs><style>.cls-1{fill:#49f2d2;}.cls-2{fill:#fff;}.cls-3{fill:#d5ecfc;}.cls-4{fill:#298775;}.cls-5{fill:#ffb700;}.cls-6{fill:#f99a24;}.cls-7{fill:#14b0bf;}</style></defs><g id="Camada_2" data-name="Camada 2"><g id="icons"><path class="cls-1" d="M7.32,19.68H58.47A1.49,1.49,0,0,1,60,21.18V51.86a1.49,1.49,0,0,1-1.49,1.49H7.32a1.5,1.5,0,0,1-1.5-1.5V21.18A1.49,1.49,0,0,1,7.32,19.68Z"/><rect class="cls-2" x="9.31" y="22.06" width="47.17" height="28.92"/><polygon class="cls-3" points="56.48 50.98 9.31 50.98 56.48 22.06 56.48 50.98"/><path class="cls-4" d="M63.84,57.58c-.78,1-2.39,1-3.21,1H5.16a3.94,3.94,0,0,1-3.22-1L.22,55.52c-.41-.47-.42-1,1.5-1H64.07c1.91,0,1.91.56,1.49,1Z"/><path class="cls-1" d="M63,31.09c-.9,2.37-9.41,3.58-18.08.29S30.64,21.53,31.53,19.17L36.81,5.28c4.41-3.17,10.48,3.08,16,5.18s14.28,1.4,15.41,6.74Z"/><path class="cls-4" d="M49,19.48a.75.75,0,0,1-.55-.23L32.17,2A.76.76,0,0,1,32,1.19a.75.75,0,0,1,.68-.43l23,1.36a.79.79,0,0,1,.46.19L73.67,18.15a.76.76,0,0,1,.2.83.77.77,0,0,1-.71.48Z"/><path class="cls-4" d="M74.18,17.59,56.71,1.75a1.55,1.55,0,0,0-.93-.39L32.81,0h-.09a1.51,1.51,0,0,0-1.1,2.55L47.87,19.77a1.52,1.52,0,0,0,1.1.47h0l24.19,0a1.51,1.51,0,0,0,1-2.63ZM49,18.73,32.72,1.51l23,1.36L73.16,18.71Z"/><path class="cls-5" d="M65.92,40.43a.74.74,0,0,1-.75-.75V23.57L52.28,11a.76.76,0,1,1,1.06-1.08L66.45,22.71a.74.74,0,0,1,.23.54V39.68A.75.75,0,0,1,65.92,40.43Z"/><path class="cls-6" d="M69.23,42.44a2.19,2.19,0,0,1-2.17,2.21l-2.19,0a2.18,2.18,0,0,1-2.22-2.16l0-3c0-1.21.93-4.39,2.15-4.4l2.19,0c1.21,0,2.22,3.15,2.23,4.36Z"/><path class="cls-7" d="M15.39,40.34H12.56V35.43h2.83v.85H13.61v1.08h1.66v.86H13.61v1.26h1.78Z"/><path class="cls-7" d="M16,38.92v-.84h1.81v.84Z"/><path class="cls-7" d="M18.63,40.34V35.43h1v4h2v.86Z"/><path class="cls-7" d="M25.35,40.34H22.52V35.43h2.83v.85H23.56v1.08h1.66v.86H23.56v1.26h1.79Z"/><path class="cls-7" d="M29.38,40.34,29,39.17H27.23l-.35,1.17H25.75l1.74-4.93h1.27l1.74,4.93Zm-.6-2c-.33-1.06-.52-1.66-.56-1.8l-.09-.33c-.07.29-.29,1-.64,2.13Z"/><path class="cls-7" d="M32.16,38.46v1.88h-1V35.43h1.43A2.39,2.39,0,0,1,34,35.8a1.29,1.29,0,0,1,.48,1.1,1.34,1.34,0,0,1-.23.77,1.52,1.52,0,0,1-.68.53c.74,1.11,1.22,1.82,1.44,2.14H33.89l-1.17-1.88Zm0-.85h.34a1.3,1.3,0,0,0,.73-.16.61.61,0,0,0,.23-.52.55.55,0,0,0-.24-.5,1.44,1.44,0,0,0-.74-.15h-.32Z"/><path class="cls-7" d="M40,40.34H38.7l-2.14-3.71h0c0,.65.06,1.12.06,1.4v2.31h-.93V35.43H37l2.13,3.68h0c0-.64-.05-1.09-.05-1.35V35.43H40Z"/><path class="cls-7" d="M41.26,40.34V35.43h1v4.91Z"/><path class="cls-7" d="M47.89,40.34H46.57l-2.14-3.71h0c0,.65.07,1.12.07,1.4v2.31h-.94V35.43h1.32L47,39.11h0q-.06-1-.06-1.35V35.43h.94Z"/><path class="cls-7" d="M51,37.58h1.95v2.55a5.49,5.49,0,0,1-.89.22,6,6,0,0,1-.85.06,2.17,2.17,0,0,1-1.7-.65,2.73,2.73,0,0,1-.59-1.88A2.48,2.48,0,0,1,49.59,36a2.55,2.55,0,0,1,1.89-.67,3.7,3.7,0,0,1,1.46.3l-.35.84a2.46,2.46,0,0,0-1.12-.27,1.38,1.38,0,0,0-1.08.45A1.76,1.76,0,0,0,50,37.9a2,2,0,0,0,.33,1.22,1.14,1.14,0,0,0,.95.42,3.68,3.68,0,0,0,.66-.06v-1H51Z"/></g></g></svg>