<svg xmlns="http://www.w3.org/2000/svg" xmlns:xlink="http://www.w3.org/1999/xlink" viewBox="0 0 253.56 299.01"><defs><style>.cls-1{fill:#f5f5f5;}.cls-2{fill:url(#linear-gradient);}.cls-3{fill:url(#linear-gradient-2);}.cls-4{fill:url(#linear-gradient-3);}.cls-5{font-size:24.38px;fill:#adadad;font-family:NasalizationRg-Regular, Nasalization;}</style><linearGradient id="linear-gradient" x1="163.75" y1="65.89" x2="-2.63" y2="241.72" gradientUnits="userSpaceOnUse"><stop offset="0" stop-color="#0fd"/><stop offset="1" stop-color="#00d4ff"/></linearGradient><linearGradient id="linear-gradient-2" x1="185.21" y1="-39.83" x2="-62.27" y2="221.71" xlink:href="#linear-gradient"/><linearGradient id="linear-gradient-3" x1="257.3" y1="-3.3" x2="9.71" y2="258.36" xlink:href="#linear-gradient"/></defs><g id="Camada_2" data-name="Camada 2"><g id="graphics"><path class="cls-1" d="M13.15,224.58a3.69,3.69,0,0,0-1.39,3,3.42,3.42,0,0,0,1.69,3q1.7,1.11,7.83,2.62a22,22,0,0,1,9.51,4.52q3.39,3,3.39,8.81a11.61,11.61,0,0,1-4.35,9.39q-4.33,3.6-11.42,3.6Q8.2,259.52,0,252l5.73-7q7,6.09,12.87,6.09a6.73,6.73,0,0,0,4.15-1.13,3.65,3.65,0,0,0,1.51-3.08,3.58,3.58,0,0,0-1.6-3.08,20.88,20.88,0,0,0-6.34-2.31q-7.51-1.78-11-4.65t-3.48-9a11.12,11.12,0,0,1,4.4-9.45,17.69,17.69,0,0,1,11-3.33,26.27,26.27,0,0,1,8.62,1.48,23,23,0,0,1,7.51,4.19l-4.86,7a18.93,18.93,0,0,0-11.58-4.25A5.76,5.76,0,0,0,13.15,224.58Z"/><path class="cls-1" d="M74.25,216h9.6v43h-9.6V242.1H57.13V259H47.52V216h9.61v18H74.25Z"/><path class="cls-1" d="M100.6,216h9.61v43H100.6Z"/><path class="cls-1" d="M158,216v8.56H136.56v8.86h19.28v8.19H136.56v8.93h22.11V259H127V216Z"/><path class="cls-1" d="M173.39,259V216H183v34.48h18.35V259Z"/><path class="cls-1" d="M247.4,221.62q6.16,5.64,6.16,15.67t-6,15.89q-6,5.85-18.32,5.85H214.52V216h15.21Q241.25,216,247.4,221.62Zm-7.05,25.59q3.54-3.33,3.54-9.67t-3.54-9.76q-3.54-3.42-10.87-3.42h-5.35v26.17h6.09Q236.82,250.53,240.35,247.21Z"/><path class="cls-2" d="M166.14,160.82c-19.06.2-35.22-7.3-45.51-21.12-12.86-17.26-15-42.57-6.14-71.26a2.43,2.43,0,0,0-1.43-3c-29.41-11.47-53.89-1.11-70.8,30A2.46,2.46,0,0,0,42,97c7.31,45.66,48.14,79.39,83.91,95.74h0a2.51,2.51,0,0,0,1.92,0c13.79-5.8,28.39-15.92,40.05-27.77A2.43,2.43,0,0,0,166.14,160.82ZM46.92,97C62.19,69.46,83,60.06,108.76,69.05c-11.91,23.37-17.21,43.77-16.23,62.31h0c1,18,8.11,34.49,21.75,49.93C83.81,164,53.32,134.69,46.92,97Zm80.45,90.61C108.05,170,98.5,152,97.38,131.1h0c-.68-12.79,1.84-26.6,7.64-41.81a97.32,97.32,0,0,0-.65,16.74c.75,14.1,4.9,26.55,12.36,36.57,10.17,13.65,25.51,21.66,43.62,22.9A123.38,123.38,0,0,1,127.37,187.61Z"/><path class="cls-3" d="M83,53c21.39-2.51,44.39,8.26,64.79,30.32l0,0a2.45,2.45,0,0,0,3.28.22c15-12,22.14-26.31,21.28-42.53-.56-10.48-4.54-21.84-11.82-33.75a2.47,2.47,0,0,0-1.2-1c-43.2-16.49-92.82,2-124.87,24.8a2.47,2.47,0,0,0-1,1.67,112.81,112.81,0,0,0-.61,20,135.33,135.33,0,0,0,4.64,28.61A2.43,2.43,0,0,0,42,81.9C51.32,65.29,65.89,55,83,53Zm73.84-42.48c6.58,11,10.17,21.3,10.68,30.76.73,13.82-5.11,26.17-17.39,36.76C122,34.79,90.66,18.51,50.18,26.74,80.43,9,121-2.74,156.84,10.56Zm-116,64a123.3,123.3,0,0,1-2.65-39.61c38.94-12.37,69.33-3.19,96.21,29.69C117.46,52,99.53,46.22,82.44,48.22,65.53,50.2,50.93,59.48,40.8,74.54Z"/><path class="cls-4" d="M220.65,39.88c-.23-4.28-.54-7.18-.54-7.18a2.5,2.5,0,0,0-.94-1.67c-11.92-9-28-16.63-44.07-20.8a2.43,2.43,0,0,0-2.7,3.58c9.7,16.41,11.29,34.16,4.47,50-8.53,19.77-29.35,34.31-58.65,40.94h0a2.44,2.44,0,0,0-1.84,2.73c4.77,31.2,26,47.22,61.33,46.34a2.44,2.44,0,0,0,1.47-.55C221.43,118.91,221.6,57.8,220.65,39.88ZM181.33,65.71c6.73-15.63,6-32.92-2-49.23A123.44,123.44,0,0,1,215,34c-8.77,39.91-31.91,61.63-73.83,68.47C160.56,94.15,174.51,81.51,181.33,65.71ZM176.74,149c-31.49.55-50-12.76-55.13-39.58,51.52-2.7,81.28-21.68,94.41-60.78C216,71.9,211.51,120.17,176.74,149Z"/><text class="cls-5" transform="translate(41.44 292.57)">web learning</text></g></g></svg>